<mxfile host="app.diagrams.net" modified="2023-07-17T16:35:27.471Z" agent="Mozilla/5.0 (Windows NT 10.0; Win64; x64) AppleWebKit/537.36 (KHTML, like Gecko) Chrome/114.0.0.0 Safari/537.36 Edg/114.0.1823.82" etag="UpR9XFSv3G5UAkxK-yUe" version="21.6.2" type="github" pages="2">
  <diagram id="C5RBs43oDa-KdzZeNtuy" name="erd">
    <mxGraphModel dx="552" dy="1487" grid="1" gridSize="10" guides="1" tooltips="1" connect="1" arrows="1" fold="1" page="1" pageScale="1" pageWidth="827" pageHeight="1169" math="0" shadow="0">
      <root>
        <mxCell id="WIyWlLk6GJQsqaUBKTNV-0" />
        <mxCell id="WIyWlLk6GJQsqaUBKTNV-1" parent="WIyWlLk6GJQsqaUBKTNV-0" />
        <mxCell id="t1YEUWC0Ey2fPe6ZNpDe-0" value="categories" style="swimlane;fontStyle=0;childLayout=stackLayout;horizontal=1;startSize=30;horizontalStack=0;resizeParent=1;resizeParentMax=0;resizeLast=0;collapsible=1;marginBottom=0;whiteSpace=wrap;html=1;" parent="WIyWlLk6GJQsqaUBKTNV-1" vertex="1">
          <mxGeometry x="1850" y="80" width="140" height="180" as="geometry" />
        </mxCell>
        <mxCell id="t1YEUWC0Ey2fPe6ZNpDe-1" value="id" style="text;strokeColor=none;fillColor=none;align=left;verticalAlign=middle;spacingLeft=4;spacingRight=4;overflow=hidden;points=[[0,0.5],[1,0.5]];portConstraint=eastwest;rotatable=0;whiteSpace=wrap;html=1;" parent="t1YEUWC0Ey2fPe6ZNpDe-0" vertex="1">
          <mxGeometry y="30" width="140" height="30" as="geometry" />
        </mxCell>
        <mxCell id="t1YEUWC0Ey2fPe6ZNpDe-2" value="name" style="text;strokeColor=none;fillColor=none;align=left;verticalAlign=middle;spacingLeft=4;spacingRight=4;overflow=hidden;points=[[0,0.5],[1,0.5]];portConstraint=eastwest;rotatable=0;whiteSpace=wrap;html=1;" parent="t1YEUWC0Ey2fPe6ZNpDe-0" vertex="1">
          <mxGeometry y="60" width="140" height="30" as="geometry" />
        </mxCell>
        <mxCell id="t1YEUWC0Ey2fPe6ZNpDe-3" value="slug" style="text;strokeColor=none;fillColor=none;align=left;verticalAlign=middle;spacingLeft=4;spacingRight=4;overflow=hidden;points=[[0,0.5],[1,0.5]];portConstraint=eastwest;rotatable=0;whiteSpace=wrap;html=1;" parent="t1YEUWC0Ey2fPe6ZNpDe-0" vertex="1">
          <mxGeometry y="90" width="140" height="30" as="geometry" />
        </mxCell>
        <mxCell id="t1YEUWC0Ey2fPe6ZNpDe-4" value="created_at" style="text;strokeColor=none;fillColor=none;align=left;verticalAlign=middle;spacingLeft=4;spacingRight=4;overflow=hidden;points=[[0,0.5],[1,0.5]];portConstraint=eastwest;rotatable=0;whiteSpace=wrap;html=1;" parent="t1YEUWC0Ey2fPe6ZNpDe-0" vertex="1">
          <mxGeometry y="120" width="140" height="30" as="geometry" />
        </mxCell>
        <mxCell id="t1YEUWC0Ey2fPe6ZNpDe-5" value="updated_at" style="text;strokeColor=none;fillColor=none;align=left;verticalAlign=middle;spacingLeft=4;spacingRight=4;overflow=hidden;points=[[0,0.5],[1,0.5]];portConstraint=eastwest;rotatable=0;whiteSpace=wrap;html=1;" parent="t1YEUWC0Ey2fPe6ZNpDe-0" vertex="1">
          <mxGeometry y="150" width="140" height="30" as="geometry" />
        </mxCell>
        <mxCell id="t1YEUWC0Ey2fPe6ZNpDe-6" value="Products" style="swimlane;fontStyle=0;childLayout=stackLayout;horizontal=1;startSize=30;horizontalStack=0;resizeParent=1;resizeParentMax=0;resizeLast=0;collapsible=1;marginBottom=0;whiteSpace=wrap;html=1;" parent="WIyWlLk6GJQsqaUBKTNV-1" vertex="1">
          <mxGeometry x="2057" y="45" width="140" height="480" as="geometry" />
        </mxCell>
        <mxCell id="t1YEUWC0Ey2fPe6ZNpDe-7" value="id" style="text;strokeColor=none;fillColor=none;align=left;verticalAlign=middle;spacingLeft=4;spacingRight=4;overflow=hidden;points=[[0,0.5],[1,0.5]];portConstraint=eastwest;rotatable=0;whiteSpace=wrap;html=1;" parent="t1YEUWC0Ey2fPe6ZNpDe-6" vertex="1">
          <mxGeometry y="30" width="140" height="30" as="geometry" />
        </mxCell>
        <mxCell id="t1YEUWC0Ey2fPe6ZNpDe-8" value="category_id" style="text;strokeColor=none;fillColor=none;align=left;verticalAlign=middle;spacingLeft=4;spacingRight=4;overflow=hidden;points=[[0,0.5],[1,0.5]];portConstraint=eastwest;rotatable=0;whiteSpace=wrap;html=1;" parent="t1YEUWC0Ey2fPe6ZNpDe-6" vertex="1">
          <mxGeometry y="60" width="140" height="30" as="geometry" />
        </mxCell>
        <mxCell id="t1YEUWC0Ey2fPe6ZNpDe-9" value="brand_id" style="text;strokeColor=none;fillColor=none;align=left;verticalAlign=middle;spacingLeft=4;spacingRight=4;overflow=hidden;points=[[0,0.5],[1,0.5]];portConstraint=eastwest;rotatable=0;whiteSpace=wrap;html=1;" parent="t1YEUWC0Ey2fPe6ZNpDe-6" vertex="1">
          <mxGeometry y="90" width="140" height="30" as="geometry" />
        </mxCell>
        <mxCell id="t1YEUWC0Ey2fPe6ZNpDe-10" value="name" style="text;strokeColor=none;fillColor=none;align=left;verticalAlign=middle;spacingLeft=4;spacingRight=4;overflow=hidden;points=[[0,0.5],[1,0.5]];portConstraint=eastwest;rotatable=0;whiteSpace=wrap;html=1;" parent="t1YEUWC0Ey2fPe6ZNpDe-6" vertex="1">
          <mxGeometry y="120" width="140" height="30" as="geometry" />
        </mxCell>
        <mxCell id="t1YEUWC0Ey2fPe6ZNpDe-11" value="slug" style="text;strokeColor=none;fillColor=none;align=left;verticalAlign=middle;spacingLeft=4;spacingRight=4;overflow=hidden;points=[[0,0.5],[1,0.5]];portConstraint=eastwest;rotatable=0;whiteSpace=wrap;html=1;" parent="t1YEUWC0Ey2fPe6ZNpDe-6" vertex="1">
          <mxGeometry y="150" width="140" height="30" as="geometry" />
        </mxCell>
        <mxCell id="t1YEUWC0Ey2fPe6ZNpDe-12" value="price" style="text;strokeColor=none;fillColor=none;align=left;verticalAlign=middle;spacingLeft=4;spacingRight=4;overflow=hidden;points=[[0,0.5],[1,0.5]];portConstraint=eastwest;rotatable=0;whiteSpace=wrap;html=1;" parent="t1YEUWC0Ey2fPe6ZNpDe-6" vertex="1">
          <mxGeometry y="180" width="140" height="30" as="geometry" />
        </mxCell>
        <mxCell id="t1YEUWC0Ey2fPe6ZNpDe-13" value="spesifikasi" style="text;strokeColor=none;fillColor=none;align=left;verticalAlign=middle;spacingLeft=4;spacingRight=4;overflow=hidden;points=[[0,0.5],[1,0.5]];portConstraint=eastwest;rotatable=0;whiteSpace=wrap;html=1;" parent="t1YEUWC0Ey2fPe6ZNpDe-6" vertex="1">
          <mxGeometry y="210" width="140" height="30" as="geometry" />
        </mxCell>
        <mxCell id="t1YEUWC0Ey2fPe6ZNpDe-14" value="stock" style="text;strokeColor=none;fillColor=none;align=left;verticalAlign=middle;spacingLeft=4;spacingRight=4;overflow=hidden;points=[[0,0.5],[1,0.5]];portConstraint=eastwest;rotatable=0;whiteSpace=wrap;html=1;" parent="t1YEUWC0Ey2fPe6ZNpDe-6" vertex="1">
          <mxGeometry y="240" width="140" height="30" as="geometry" />
        </mxCell>
        <mxCell id="t1YEUWC0Ey2fPe6ZNpDe-15" value="berat" style="text;strokeColor=none;fillColor=none;align=left;verticalAlign=middle;spacingLeft=4;spacingRight=4;overflow=hidden;points=[[0,0.5],[1,0.5]];portConstraint=eastwest;rotatable=0;whiteSpace=wrap;html=1;" parent="t1YEUWC0Ey2fPe6ZNpDe-6" vertex="1">
          <mxGeometry y="270" width="140" height="30" as="geometry" />
        </mxCell>
        <mxCell id="t1YEUWC0Ey2fPe6ZNpDe-16" value="img1" style="text;strokeColor=none;fillColor=none;align=left;verticalAlign=middle;spacingLeft=4;spacingRight=4;overflow=hidden;points=[[0,0.5],[1,0.5]];portConstraint=eastwest;rotatable=0;whiteSpace=wrap;html=1;" parent="t1YEUWC0Ey2fPe6ZNpDe-6" vertex="1">
          <mxGeometry y="300" width="140" height="30" as="geometry" />
        </mxCell>
        <mxCell id="t1YEUWC0Ey2fPe6ZNpDe-17" value="img2" style="text;strokeColor=none;fillColor=none;align=left;verticalAlign=middle;spacingLeft=4;spacingRight=4;overflow=hidden;points=[[0,0.5],[1,0.5]];portConstraint=eastwest;rotatable=0;whiteSpace=wrap;html=1;" parent="t1YEUWC0Ey2fPe6ZNpDe-6" vertex="1">
          <mxGeometry y="330" width="140" height="30" as="geometry" />
        </mxCell>
        <mxCell id="t1YEUWC0Ey2fPe6ZNpDe-18" value="img3" style="text;strokeColor=none;fillColor=none;align=left;verticalAlign=middle;spacingLeft=4;spacingRight=4;overflow=hidden;points=[[0,0.5],[1,0.5]];portConstraint=eastwest;rotatable=0;whiteSpace=wrap;html=1;" parent="t1YEUWC0Ey2fPe6ZNpDe-6" vertex="1">
          <mxGeometry y="360" width="140" height="30" as="geometry" />
        </mxCell>
        <mxCell id="t1YEUWC0Ey2fPe6ZNpDe-19" value="img4" style="text;strokeColor=none;fillColor=none;align=left;verticalAlign=middle;spacingLeft=4;spacingRight=4;overflow=hidden;points=[[0,0.5],[1,0.5]];portConstraint=eastwest;rotatable=0;whiteSpace=wrap;html=1;" parent="t1YEUWC0Ey2fPe6ZNpDe-6" vertex="1">
          <mxGeometry y="390" width="140" height="30" as="geometry" />
        </mxCell>
        <mxCell id="t1YEUWC0Ey2fPe6ZNpDe-20" value="created_at" style="text;strokeColor=none;fillColor=none;align=left;verticalAlign=middle;spacingLeft=4;spacingRight=4;overflow=hidden;points=[[0,0.5],[1,0.5]];portConstraint=eastwest;rotatable=0;whiteSpace=wrap;html=1;" parent="t1YEUWC0Ey2fPe6ZNpDe-6" vertex="1">
          <mxGeometry y="420" width="140" height="30" as="geometry" />
        </mxCell>
        <mxCell id="t1YEUWC0Ey2fPe6ZNpDe-21" value="updated_at" style="text;strokeColor=none;fillColor=none;align=left;verticalAlign=middle;spacingLeft=4;spacingRight=4;overflow=hidden;points=[[0,0.5],[1,0.5]];portConstraint=eastwest;rotatable=0;whiteSpace=wrap;html=1;" parent="t1YEUWC0Ey2fPe6ZNpDe-6" vertex="1">
          <mxGeometry y="450" width="140" height="30" as="geometry" />
        </mxCell>
        <mxCell id="NbUKhu7Z80dS_t6CwLB7-10" value="" style="edgeStyle=entityRelationEdgeStyle;fontSize=12;html=1;endArrow=ERoneToMany;rounded=0;" edge="1" parent="WIyWlLk6GJQsqaUBKTNV-1" source="t1YEUWC0Ey2fPe6ZNpDe-1" target="t1YEUWC0Ey2fPe6ZNpDe-8">
          <mxGeometry width="100" height="100" relative="1" as="geometry">
            <mxPoint x="1600" y="480" as="sourcePoint" />
            <mxPoint x="1700" y="380" as="targetPoint" />
          </mxGeometry>
        </mxCell>
        <mxCell id="zUrMYcHDypvcWxiflEr3-0" value="brands" style="swimlane;fontStyle=1;align=center;verticalAlign=top;childLayout=stackLayout;horizontal=1;startSize=26;horizontalStack=0;resizeParent=1;resizeParentMax=0;resizeLast=0;collapsible=1;marginBottom=0;whiteSpace=wrap;html=1;" vertex="1" parent="WIyWlLk6GJQsqaUBKTNV-1">
          <mxGeometry x="2280" y="10" width="181" height="190" as="geometry" />
        </mxCell>
        <mxCell id="zUrMYcHDypvcWxiflEr3-1" value="id" style="text;strokeColor=none;fillColor=none;align=left;verticalAlign=top;spacingLeft=4;spacingRight=4;overflow=hidden;rotatable=0;points=[[0,0.5],[1,0.5]];portConstraint=eastwest;whiteSpace=wrap;html=1;" vertex="1" parent="zUrMYcHDypvcWxiflEr3-0">
          <mxGeometry y="26" width="181" height="26" as="geometry" />
        </mxCell>
        <mxCell id="zUrMYcHDypvcWxiflEr3-2" value="name" style="text;strokeColor=none;fillColor=none;align=left;verticalAlign=top;spacingLeft=4;spacingRight=4;overflow=hidden;rotatable=0;points=[[0,0.5],[1,0.5]];portConstraint=eastwest;whiteSpace=wrap;html=1;" vertex="1" parent="zUrMYcHDypvcWxiflEr3-0">
          <mxGeometry y="52" width="181" height="26" as="geometry" />
        </mxCell>
        <mxCell id="zUrMYcHDypvcWxiflEr3-3" value="slug" style="text;strokeColor=none;fillColor=none;align=left;verticalAlign=top;spacingLeft=4;spacingRight=4;overflow=hidden;rotatable=0;points=[[0,0.5],[1,0.5]];portConstraint=eastwest;whiteSpace=wrap;html=1;" vertex="1" parent="zUrMYcHDypvcWxiflEr3-0">
          <mxGeometry y="78" width="181" height="26" as="geometry" />
        </mxCell>
        <mxCell id="zUrMYcHDypvcWxiflEr3-4" value="created_at" style="text;strokeColor=none;fillColor=none;align=left;verticalAlign=top;spacingLeft=4;spacingRight=4;overflow=hidden;rotatable=0;points=[[0,0.5],[1,0.5]];portConstraint=eastwest;whiteSpace=wrap;html=1;" vertex="1" parent="zUrMYcHDypvcWxiflEr3-0">
          <mxGeometry y="104" width="181" height="26" as="geometry" />
        </mxCell>
        <mxCell id="zUrMYcHDypvcWxiflEr3-5" value="updated_at" style="text;strokeColor=none;fillColor=none;align=left;verticalAlign=top;spacingLeft=4;spacingRight=4;overflow=hidden;rotatable=0;points=[[0,0.5],[1,0.5]];portConstraint=eastwest;whiteSpace=wrap;html=1;" vertex="1" parent="zUrMYcHDypvcWxiflEr3-0">
          <mxGeometry y="130" width="181" height="26" as="geometry" />
        </mxCell>
        <mxCell id="zUrMYcHDypvcWxiflEr3-6" value="" style="line;strokeWidth=1;fillColor=none;align=left;verticalAlign=middle;spacingTop=-1;spacingLeft=3;spacingRight=3;rotatable=0;labelPosition=right;points=[];portConstraint=eastwest;strokeColor=inherit;" vertex="1" parent="zUrMYcHDypvcWxiflEr3-0">
          <mxGeometry y="156" width="181" height="8" as="geometry" />
        </mxCell>
        <mxCell id="zUrMYcHDypvcWxiflEr3-7" value="+ CRUD()" style="text;strokeColor=none;fillColor=none;align=left;verticalAlign=top;spacingLeft=4;spacingRight=4;overflow=hidden;rotatable=0;points=[[0,0.5],[1,0.5]];portConstraint=eastwest;whiteSpace=wrap;html=1;" vertex="1" parent="zUrMYcHDypvcWxiflEr3-0">
          <mxGeometry y="164" width="181" height="26" as="geometry" />
        </mxCell>
        <mxCell id="WJk2E3MaFBV2OWUBCjsf-0" value="profiles" style="swimlane;fontStyle=1;align=center;verticalAlign=top;childLayout=stackLayout;horizontal=1;startSize=26;horizontalStack=0;resizeParent=1;resizeParentMax=0;resizeLast=0;collapsible=1;marginBottom=0;whiteSpace=wrap;html=1;" vertex="1" parent="WIyWlLk6GJQsqaUBKTNV-1">
          <mxGeometry x="320" y="-4" width="181" height="260" as="geometry" />
        </mxCell>
        <mxCell id="WJk2E3MaFBV2OWUBCjsf-1" value="id" style="text;strokeColor=none;fillColor=none;align=left;verticalAlign=top;spacingLeft=4;spacingRight=4;overflow=hidden;rotatable=0;points=[[0,0.5],[1,0.5]];portConstraint=eastwest;whiteSpace=wrap;html=1;" vertex="1" parent="WJk2E3MaFBV2OWUBCjsf-0">
          <mxGeometry y="26" width="181" height="26" as="geometry" />
        </mxCell>
        <mxCell id="WJk2E3MaFBV2OWUBCjsf-2" value="user_id" style="text;strokeColor=none;fillColor=none;align=left;verticalAlign=top;spacingLeft=4;spacingRight=4;overflow=hidden;rotatable=0;points=[[0,0.5],[1,0.5]];portConstraint=eastwest;whiteSpace=wrap;html=1;" vertex="1" parent="WJk2E3MaFBV2OWUBCjsf-0">
          <mxGeometry y="52" width="181" height="26" as="geometry" />
        </mxCell>
        <mxCell id="WJk2E3MaFBV2OWUBCjsf-3" value="kota_id" style="text;strokeColor=none;fillColor=none;align=left;verticalAlign=top;spacingLeft=4;spacingRight=4;overflow=hidden;rotatable=0;points=[[0,0.5],[1,0.5]];portConstraint=eastwest;whiteSpace=wrap;html=1;" vertex="1" parent="WJk2E3MaFBV2OWUBCjsf-0">
          <mxGeometry y="78" width="181" height="26" as="geometry" />
        </mxCell>
        <mxCell id="WJk2E3MaFBV2OWUBCjsf-4" value="province_id" style="text;strokeColor=none;fillColor=none;align=left;verticalAlign=top;spacingLeft=4;spacingRight=4;overflow=hidden;rotatable=0;points=[[0,0.5],[1,0.5]];portConstraint=eastwest;whiteSpace=wrap;html=1;" vertex="1" parent="WJk2E3MaFBV2OWUBCjsf-0">
          <mxGeometry y="104" width="181" height="26" as="geometry" />
        </mxCell>
        <mxCell id="WJk2E3MaFBV2OWUBCjsf-5" value="alamat" style="text;strokeColor=none;fillColor=none;align=left;verticalAlign=top;spacingLeft=4;spacingRight=4;overflow=hidden;rotatable=0;points=[[0,0.5],[1,0.5]];portConstraint=eastwest;whiteSpace=wrap;html=1;" vertex="1" parent="WJk2E3MaFBV2OWUBCjsf-0">
          <mxGeometry y="130" width="181" height="26" as="geometry" />
        </mxCell>
        <mxCell id="WJk2E3MaFBV2OWUBCjsf-6" value="no_hp" style="text;strokeColor=none;fillColor=none;align=left;verticalAlign=top;spacingLeft=4;spacingRight=4;overflow=hidden;rotatable=0;points=[[0,0.5],[1,0.5]];portConstraint=eastwest;whiteSpace=wrap;html=1;" vertex="1" parent="WJk2E3MaFBV2OWUBCjsf-0">
          <mxGeometry y="156" width="181" height="26" as="geometry" />
        </mxCell>
        <mxCell id="WJk2E3MaFBV2OWUBCjsf-7" value="img" style="text;strokeColor=none;fillColor=none;align=left;verticalAlign=top;spacingLeft=4;spacingRight=4;overflow=hidden;rotatable=0;points=[[0,0.5],[1,0.5]];portConstraint=eastwest;whiteSpace=wrap;html=1;" vertex="1" parent="WJk2E3MaFBV2OWUBCjsf-0">
          <mxGeometry y="182" width="181" height="26" as="geometry" />
        </mxCell>
        <mxCell id="WJk2E3MaFBV2OWUBCjsf-8" value="created_at" style="text;strokeColor=none;fillColor=none;align=left;verticalAlign=top;spacingLeft=4;spacingRight=4;overflow=hidden;rotatable=0;points=[[0,0.5],[1,0.5]];portConstraint=eastwest;whiteSpace=wrap;html=1;" vertex="1" parent="WJk2E3MaFBV2OWUBCjsf-0">
          <mxGeometry y="208" width="181" height="26" as="geometry" />
        </mxCell>
        <mxCell id="WJk2E3MaFBV2OWUBCjsf-9" value="updated_at" style="text;strokeColor=none;fillColor=none;align=left;verticalAlign=top;spacingLeft=4;spacingRight=4;overflow=hidden;rotatable=0;points=[[0,0.5],[1,0.5]];portConstraint=eastwest;whiteSpace=wrap;html=1;" vertex="1" parent="WJk2E3MaFBV2OWUBCjsf-0">
          <mxGeometry y="234" width="181" height="26" as="geometry" />
        </mxCell>
        <mxCell id="WJk2E3MaFBV2OWUBCjsf-15" value="users" style="swimlane;fontStyle=1;align=center;verticalAlign=top;childLayout=stackLayout;horizontal=1;startSize=26;horizontalStack=0;resizeParent=1;resizeParentMax=0;resizeLast=0;collapsible=1;marginBottom=0;whiteSpace=wrap;html=1;" vertex="1" parent="WIyWlLk6GJQsqaUBKTNV-1">
          <mxGeometry x="570" y="-4" width="201" height="234" as="geometry" />
        </mxCell>
        <mxCell id="WJk2E3MaFBV2OWUBCjsf-16" value="od" style="text;strokeColor=none;fillColor=none;align=left;verticalAlign=top;spacingLeft=4;spacingRight=4;overflow=hidden;rotatable=0;points=[[0,0.5],[1,0.5]];portConstraint=eastwest;whiteSpace=wrap;html=1;" vertex="1" parent="WJk2E3MaFBV2OWUBCjsf-15">
          <mxGeometry y="26" width="201" height="26" as="geometry" />
        </mxCell>
        <mxCell id="WJk2E3MaFBV2OWUBCjsf-17" value="name" style="text;strokeColor=none;fillColor=none;align=left;verticalAlign=top;spacingLeft=4;spacingRight=4;overflow=hidden;rotatable=0;points=[[0,0.5],[1,0.5]];portConstraint=eastwest;whiteSpace=wrap;html=1;" vertex="1" parent="WJk2E3MaFBV2OWUBCjsf-15">
          <mxGeometry y="52" width="201" height="26" as="geometry" />
        </mxCell>
        <mxCell id="WJk2E3MaFBV2OWUBCjsf-18" value="email" style="text;strokeColor=none;fillColor=none;align=left;verticalAlign=top;spacingLeft=4;spacingRight=4;overflow=hidden;rotatable=0;points=[[0,0.5],[1,0.5]];portConstraint=eastwest;whiteSpace=wrap;html=1;" vertex="1" parent="WJk2E3MaFBV2OWUBCjsf-15">
          <mxGeometry y="78" width="201" height="26" as="geometry" />
        </mxCell>
        <mxCell id="WJk2E3MaFBV2OWUBCjsf-19" value="email_verified_at" style="text;strokeColor=none;fillColor=none;align=left;verticalAlign=top;spacingLeft=4;spacingRight=4;overflow=hidden;rotatable=0;points=[[0,0.5],[1,0.5]];portConstraint=eastwest;whiteSpace=wrap;html=1;" vertex="1" parent="WJk2E3MaFBV2OWUBCjsf-15">
          <mxGeometry y="104" width="201" height="26" as="geometry" />
        </mxCell>
        <mxCell id="WJk2E3MaFBV2OWUBCjsf-20" value="password" style="text;strokeColor=none;fillColor=none;align=left;verticalAlign=top;spacingLeft=4;spacingRight=4;overflow=hidden;rotatable=0;points=[[0,0.5],[1,0.5]];portConstraint=eastwest;whiteSpace=wrap;html=1;" vertex="1" parent="WJk2E3MaFBV2OWUBCjsf-15">
          <mxGeometry y="130" width="201" height="26" as="geometry" />
        </mxCell>
        <mxCell id="WJk2E3MaFBV2OWUBCjsf-21" value="remember_token" style="text;strokeColor=none;fillColor=none;align=left;verticalAlign=top;spacingLeft=4;spacingRight=4;overflow=hidden;rotatable=0;points=[[0,0.5],[1,0.5]];portConstraint=eastwest;whiteSpace=wrap;html=1;" vertex="1" parent="WJk2E3MaFBV2OWUBCjsf-15">
          <mxGeometry y="156" width="201" height="26" as="geometry" />
        </mxCell>
        <mxCell id="WJk2E3MaFBV2OWUBCjsf-22" value="created_at" style="text;strokeColor=none;fillColor=none;align=left;verticalAlign=top;spacingLeft=4;spacingRight=4;overflow=hidden;rotatable=0;points=[[0,0.5],[1,0.5]];portConstraint=eastwest;whiteSpace=wrap;html=1;" vertex="1" parent="WJk2E3MaFBV2OWUBCjsf-15">
          <mxGeometry y="182" width="201" height="26" as="geometry" />
        </mxCell>
        <mxCell id="WJk2E3MaFBV2OWUBCjsf-23" value="updated_at" style="text;strokeColor=none;fillColor=none;align=left;verticalAlign=top;spacingLeft=4;spacingRight=4;overflow=hidden;rotatable=0;points=[[0,0.5],[1,0.5]];portConstraint=eastwest;whiteSpace=wrap;html=1;" vertex="1" parent="WJk2E3MaFBV2OWUBCjsf-15">
          <mxGeometry y="208" width="201" height="26" as="geometry" />
        </mxCell>
        <mxCell id="WJk2E3MaFBV2OWUBCjsf-27" value="keranjang" style="swimlane;fontStyle=1;align=center;verticalAlign=top;childLayout=stackLayout;horizontal=1;startSize=26;horizontalStack=0;resizeParent=1;resizeParentMax=0;resizeLast=0;collapsible=1;marginBottom=0;whiteSpace=wrap;html=1;" vertex="1" parent="WIyWlLk6GJQsqaUBKTNV-1">
          <mxGeometry x="830" y="-4" width="181" height="182" as="geometry" />
        </mxCell>
        <mxCell id="WJk2E3MaFBV2OWUBCjsf-28" value="id" style="text;strokeColor=none;fillColor=none;align=left;verticalAlign=top;spacingLeft=4;spacingRight=4;overflow=hidden;rotatable=0;points=[[0,0.5],[1,0.5]];portConstraint=eastwest;whiteSpace=wrap;html=1;" vertex="1" parent="WJk2E3MaFBV2OWUBCjsf-27">
          <mxGeometry y="26" width="181" height="26" as="geometry" />
        </mxCell>
        <mxCell id="WJk2E3MaFBV2OWUBCjsf-29" value="user_id" style="text;strokeColor=none;fillColor=none;align=left;verticalAlign=top;spacingLeft=4;spacingRight=4;overflow=hidden;rotatable=0;points=[[0,0.5],[1,0.5]];portConstraint=eastwest;whiteSpace=wrap;html=1;" vertex="1" parent="WJk2E3MaFBV2OWUBCjsf-27">
          <mxGeometry y="52" width="181" height="26" as="geometry" />
        </mxCell>
        <mxCell id="WJk2E3MaFBV2OWUBCjsf-30" value="product_id" style="text;strokeColor=none;fillColor=none;align=left;verticalAlign=top;spacingLeft=4;spacingRight=4;overflow=hidden;rotatable=0;points=[[0,0.5],[1,0.5]];portConstraint=eastwest;whiteSpace=wrap;html=1;" vertex="1" parent="WJk2E3MaFBV2OWUBCjsf-27">
          <mxGeometry y="78" width="181" height="26" as="geometry" />
        </mxCell>
        <mxCell id="WJk2E3MaFBV2OWUBCjsf-31" value="jumlah" style="text;strokeColor=none;fillColor=none;align=left;verticalAlign=top;spacingLeft=4;spacingRight=4;overflow=hidden;rotatable=0;points=[[0,0.5],[1,0.5]];portConstraint=eastwest;whiteSpace=wrap;html=1;" vertex="1" parent="WJk2E3MaFBV2OWUBCjsf-27">
          <mxGeometry y="104" width="181" height="26" as="geometry" />
        </mxCell>
        <mxCell id="WJk2E3MaFBV2OWUBCjsf-32" value="created_at" style="text;strokeColor=none;fillColor=none;align=left;verticalAlign=top;spacingLeft=4;spacingRight=4;overflow=hidden;rotatable=0;points=[[0,0.5],[1,0.5]];portConstraint=eastwest;whiteSpace=wrap;html=1;" vertex="1" parent="WJk2E3MaFBV2OWUBCjsf-27">
          <mxGeometry y="130" width="181" height="26" as="geometry" />
        </mxCell>
        <mxCell id="WJk2E3MaFBV2OWUBCjsf-33" value="updated_at" style="text;strokeColor=none;fillColor=none;align=left;verticalAlign=top;spacingLeft=4;spacingRight=4;overflow=hidden;rotatable=0;points=[[0,0.5],[1,0.5]];portConstraint=eastwest;whiteSpace=wrap;html=1;" vertex="1" parent="WJk2E3MaFBV2OWUBCjsf-27">
          <mxGeometry y="156" width="181" height="26" as="geometry" />
        </mxCell>
        <mxCell id="WJk2E3MaFBV2OWUBCjsf-54" value="cities" style="swimlane;fontStyle=1;align=center;verticalAlign=top;childLayout=stackLayout;horizontal=1;startSize=26;horizontalStack=0;resizeParent=1;resizeParentMax=0;resizeLast=0;collapsible=1;marginBottom=0;whiteSpace=wrap;html=1;" vertex="1" parent="WIyWlLk6GJQsqaUBKTNV-1">
          <mxGeometry x="20" y="-4" width="181" height="208" as="geometry" />
        </mxCell>
        <mxCell id="WJk2E3MaFBV2OWUBCjsf-55" value="id" style="text;strokeColor=none;fillColor=none;align=left;verticalAlign=top;spacingLeft=4;spacingRight=4;overflow=hidden;rotatable=0;points=[[0,0.5],[1,0.5]];portConstraint=eastwest;whiteSpace=wrap;html=1;" vertex="1" parent="WJk2E3MaFBV2OWUBCjsf-54">
          <mxGeometry y="26" width="181" height="26" as="geometry" />
        </mxCell>
        <mxCell id="WJk2E3MaFBV2OWUBCjsf-56" value="province_id" style="text;strokeColor=none;fillColor=none;align=left;verticalAlign=top;spacingLeft=4;spacingRight=4;overflow=hidden;rotatable=0;points=[[0,0.5],[1,0.5]];portConstraint=eastwest;whiteSpace=wrap;html=1;" vertex="1" parent="WJk2E3MaFBV2OWUBCjsf-54">
          <mxGeometry y="52" width="181" height="26" as="geometry" />
        </mxCell>
        <mxCell id="WJk2E3MaFBV2OWUBCjsf-57" value="type" style="text;strokeColor=none;fillColor=none;align=left;verticalAlign=top;spacingLeft=4;spacingRight=4;overflow=hidden;rotatable=0;points=[[0,0.5],[1,0.5]];portConstraint=eastwest;whiteSpace=wrap;html=1;" vertex="1" parent="WJk2E3MaFBV2OWUBCjsf-54">
          <mxGeometry y="78" width="181" height="26" as="geometry" />
        </mxCell>
        <mxCell id="WJk2E3MaFBV2OWUBCjsf-58" value="city_name" style="text;strokeColor=none;fillColor=none;align=left;verticalAlign=top;spacingLeft=4;spacingRight=4;overflow=hidden;rotatable=0;points=[[0,0.5],[1,0.5]];portConstraint=eastwest;whiteSpace=wrap;html=1;" vertex="1" parent="WJk2E3MaFBV2OWUBCjsf-54">
          <mxGeometry y="104" width="181" height="26" as="geometry" />
        </mxCell>
        <mxCell id="WJk2E3MaFBV2OWUBCjsf-59" value="postal_code" style="text;strokeColor=none;fillColor=none;align=left;verticalAlign=top;spacingLeft=4;spacingRight=4;overflow=hidden;rotatable=0;points=[[0,0.5],[1,0.5]];portConstraint=eastwest;whiteSpace=wrap;html=1;" vertex="1" parent="WJk2E3MaFBV2OWUBCjsf-54">
          <mxGeometry y="130" width="181" height="26" as="geometry" />
        </mxCell>
        <mxCell id="WJk2E3MaFBV2OWUBCjsf-60" value="created_at" style="text;strokeColor=none;fillColor=none;align=left;verticalAlign=top;spacingLeft=4;spacingRight=4;overflow=hidden;rotatable=0;points=[[0,0.5],[1,0.5]];portConstraint=eastwest;whiteSpace=wrap;html=1;" vertex="1" parent="WJk2E3MaFBV2OWUBCjsf-54">
          <mxGeometry y="156" width="181" height="26" as="geometry" />
        </mxCell>
        <mxCell id="WJk2E3MaFBV2OWUBCjsf-61" value="updated_at" style="text;strokeColor=none;fillColor=none;align=left;verticalAlign=top;spacingLeft=4;spacingRight=4;overflow=hidden;rotatable=0;points=[[0,0.5],[1,0.5]];portConstraint=eastwest;whiteSpace=wrap;html=1;" vertex="1" parent="WJk2E3MaFBV2OWUBCjsf-54">
          <mxGeometry y="182" width="181" height="26" as="geometry" />
        </mxCell>
        <mxCell id="WJk2E3MaFBV2OWUBCjsf-80" value="infotips" style="swimlane;fontStyle=1;align=center;verticalAlign=top;childLayout=stackLayout;horizontal=1;startSize=26;horizontalStack=0;resizeParent=1;resizeParentMax=0;resizeLast=0;collapsible=1;marginBottom=0;whiteSpace=wrap;html=1;" vertex="1" parent="WIyWlLk6GJQsqaUBKTNV-1">
          <mxGeometry x="1090" y="823" width="181" height="346" as="geometry" />
        </mxCell>
        <mxCell id="WJk2E3MaFBV2OWUBCjsf-81" value="+ id: bigint(20)" style="text;strokeColor=none;fillColor=none;align=left;verticalAlign=top;spacingLeft=4;spacingRight=4;overflow=hidden;rotatable=0;points=[[0,0.5],[1,0.5]];portConstraint=eastwest;whiteSpace=wrap;html=1;" vertex="1" parent="WJk2E3MaFBV2OWUBCjsf-80">
          <mxGeometry y="26" width="181" height="26" as="geometry" />
        </mxCell>
        <mxCell id="WJk2E3MaFBV2OWUBCjsf-82" value="+ title: varchar(100)" style="text;strokeColor=none;fillColor=none;align=left;verticalAlign=top;spacingLeft=4;spacingRight=4;overflow=hidden;rotatable=0;points=[[0,0.5],[1,0.5]];portConstraint=eastwest;whiteSpace=wrap;html=1;" vertex="1" parent="WJk2E3MaFBV2OWUBCjsf-80">
          <mxGeometry y="52" width="181" height="26" as="geometry" />
        </mxCell>
        <mxCell id="WJk2E3MaFBV2OWUBCjsf-83" value="+ slug: varchar(100)" style="text;strokeColor=none;fillColor=none;align=left;verticalAlign=top;spacingLeft=4;spacingRight=4;overflow=hidden;rotatable=0;points=[[0,0.5],[1,0.5]];portConstraint=eastwest;whiteSpace=wrap;html=1;" vertex="1" parent="WJk2E3MaFBV2OWUBCjsf-80">
          <mxGeometry y="78" width="181" height="26" as="geometry" />
        </mxCell>
        <mxCell id="WJk2E3MaFBV2OWUBCjsf-84" value="+ deskripsi: longtext" style="text;strokeColor=none;fillColor=none;align=left;verticalAlign=top;spacingLeft=4;spacingRight=4;overflow=hidden;rotatable=0;points=[[0,0.5],[1,0.5]];portConstraint=eastwest;whiteSpace=wrap;html=1;" vertex="1" parent="WJk2E3MaFBV2OWUBCjsf-80">
          <mxGeometry y="104" width="181" height="26" as="geometry" />
        </mxCell>
        <mxCell id="WJk2E3MaFBV2OWUBCjsf-85" value="+ thumbnail: varchar(100)" style="text;strokeColor=none;fillColor=none;align=left;verticalAlign=top;spacingLeft=4;spacingRight=4;overflow=hidden;rotatable=0;points=[[0,0.5],[1,0.5]];portConstraint=eastwest;whiteSpace=wrap;html=1;" vertex="1" parent="WJk2E3MaFBV2OWUBCjsf-80">
          <mxGeometry y="130" width="181" height="26" as="geometry" />
        </mxCell>
        <mxCell id="WJk2E3MaFBV2OWUBCjsf-86" value="+ files1: varchar(100)" style="text;strokeColor=none;fillColor=none;align=left;verticalAlign=top;spacingLeft=4;spacingRight=4;overflow=hidden;rotatable=0;points=[[0,0.5],[1,0.5]];portConstraint=eastwest;whiteSpace=wrap;html=1;" vertex="1" parent="WJk2E3MaFBV2OWUBCjsf-80">
          <mxGeometry y="156" width="181" height="26" as="geometry" />
        </mxCell>
        <mxCell id="WJk2E3MaFBV2OWUBCjsf-87" value="+ files2: varchar(100)" style="text;strokeColor=none;fillColor=none;align=left;verticalAlign=top;spacingLeft=4;spacingRight=4;overflow=hidden;rotatable=0;points=[[0,0.5],[1,0.5]];portConstraint=eastwest;whiteSpace=wrap;html=1;" vertex="1" parent="WJk2E3MaFBV2OWUBCjsf-80">
          <mxGeometry y="182" width="181" height="26" as="geometry" />
        </mxCell>
        <mxCell id="WJk2E3MaFBV2OWUBCjsf-88" value="+ files3: varchar(100)" style="text;strokeColor=none;fillColor=none;align=left;verticalAlign=top;spacingLeft=4;spacingRight=4;overflow=hidden;rotatable=0;points=[[0,0.5],[1,0.5]];portConstraint=eastwest;whiteSpace=wrap;html=1;" vertex="1" parent="WJk2E3MaFBV2OWUBCjsf-80">
          <mxGeometry y="208" width="181" height="26" as="geometry" />
        </mxCell>
        <mxCell id="WJk2E3MaFBV2OWUBCjsf-89" value="+ files4: varchar(100)" style="text;strokeColor=none;fillColor=none;align=left;verticalAlign=top;spacingLeft=4;spacingRight=4;overflow=hidden;rotatable=0;points=[[0,0.5],[1,0.5]];portConstraint=eastwest;whiteSpace=wrap;html=1;" vertex="1" parent="WJk2E3MaFBV2OWUBCjsf-80">
          <mxGeometry y="234" width="181" height="26" as="geometry" />
        </mxCell>
        <mxCell id="WJk2E3MaFBV2OWUBCjsf-90" value="+ created_at: timestamp" style="text;strokeColor=none;fillColor=none;align=left;verticalAlign=top;spacingLeft=4;spacingRight=4;overflow=hidden;rotatable=0;points=[[0,0.5],[1,0.5]];portConstraint=eastwest;whiteSpace=wrap;html=1;" vertex="1" parent="WJk2E3MaFBV2OWUBCjsf-80">
          <mxGeometry y="260" width="181" height="26" as="geometry" />
        </mxCell>
        <mxCell id="WJk2E3MaFBV2OWUBCjsf-91" value="+ updated_at_at: timestamp" style="text;strokeColor=none;fillColor=none;align=left;verticalAlign=top;spacingLeft=4;spacingRight=4;overflow=hidden;rotatable=0;points=[[0,0.5],[1,0.5]];portConstraint=eastwest;whiteSpace=wrap;html=1;" vertex="1" parent="WJk2E3MaFBV2OWUBCjsf-80">
          <mxGeometry y="286" width="181" height="26" as="geometry" />
        </mxCell>
        <mxCell id="WJk2E3MaFBV2OWUBCjsf-92" value="" style="line;strokeWidth=1;fillColor=none;align=left;verticalAlign=middle;spacingTop=-1;spacingLeft=3;spacingRight=3;rotatable=0;labelPosition=right;points=[];portConstraint=eastwest;strokeColor=inherit;" vertex="1" parent="WJk2E3MaFBV2OWUBCjsf-80">
          <mxGeometry y="312" width="181" height="8" as="geometry" />
        </mxCell>
        <mxCell id="WJk2E3MaFBV2OWUBCjsf-93" value="+ CRUD()" style="text;strokeColor=none;fillColor=none;align=left;verticalAlign=top;spacingLeft=4;spacingRight=4;overflow=hidden;rotatable=0;points=[[0,0.5],[1,0.5]];portConstraint=eastwest;whiteSpace=wrap;html=1;" vertex="1" parent="WJk2E3MaFBV2OWUBCjsf-80">
          <mxGeometry y="320" width="181" height="26" as="geometry" />
        </mxCell>
        <mxCell id="WJk2E3MaFBV2OWUBCjsf-94" value="transaksis" style="swimlane;fontStyle=1;align=center;verticalAlign=top;childLayout=stackLayout;horizontal=1;startSize=26;horizontalStack=0;resizeParent=1;resizeParentMax=0;resizeLast=0;collapsible=1;marginBottom=0;whiteSpace=wrap;html=1;" vertex="1" parent="WIyWlLk6GJQsqaUBKTNV-1">
          <mxGeometry x="580" y="296" width="181" height="338" as="geometry" />
        </mxCell>
        <mxCell id="WJk2E3MaFBV2OWUBCjsf-95" value="id" style="text;strokeColor=none;fillColor=none;align=left;verticalAlign=top;spacingLeft=4;spacingRight=4;overflow=hidden;rotatable=0;points=[[0,0.5],[1,0.5]];portConstraint=eastwest;whiteSpace=wrap;html=1;" vertex="1" parent="WJk2E3MaFBV2OWUBCjsf-94">
          <mxGeometry y="26" width="181" height="26" as="geometry" />
        </mxCell>
        <mxCell id="WJk2E3MaFBV2OWUBCjsf-96" value="user_id" style="text;strokeColor=none;fillColor=none;align=left;verticalAlign=top;spacingLeft=4;spacingRight=4;overflow=hidden;rotatable=0;points=[[0,0.5],[1,0.5]];portConstraint=eastwest;whiteSpace=wrap;html=1;" vertex="1" parent="WJk2E3MaFBV2OWUBCjsf-94">
          <mxGeometry y="52" width="181" height="26" as="geometry" />
        </mxCell>
        <mxCell id="WJk2E3MaFBV2OWUBCjsf-97" value="faktur" style="text;strokeColor=none;fillColor=none;align=left;verticalAlign=top;spacingLeft=4;spacingRight=4;overflow=hidden;rotatable=0;points=[[0,0.5],[1,0.5]];portConstraint=eastwest;whiteSpace=wrap;html=1;" vertex="1" parent="WJk2E3MaFBV2OWUBCjsf-94">
          <mxGeometry y="78" width="181" height="26" as="geometry" />
        </mxCell>
        <mxCell id="WJk2E3MaFBV2OWUBCjsf-98" value="nama" style="text;strokeColor=none;fillColor=none;align=left;verticalAlign=top;spacingLeft=4;spacingRight=4;overflow=hidden;rotatable=0;points=[[0,0.5],[1,0.5]];portConstraint=eastwest;whiteSpace=wrap;html=1;" vertex="1" parent="WJk2E3MaFBV2OWUBCjsf-94">
          <mxGeometry y="104" width="181" height="26" as="geometry" />
        </mxCell>
        <mxCell id="WJk2E3MaFBV2OWUBCjsf-99" value="no_ho" style="text;strokeColor=none;fillColor=none;align=left;verticalAlign=top;spacingLeft=4;spacingRight=4;overflow=hidden;rotatable=0;points=[[0,0.5],[1,0.5]];portConstraint=eastwest;whiteSpace=wrap;html=1;" vertex="1" parent="WJk2E3MaFBV2OWUBCjsf-94">
          <mxGeometry y="130" width="181" height="26" as="geometry" />
        </mxCell>
        <mxCell id="WJk2E3MaFBV2OWUBCjsf-100" value="berat" style="text;strokeColor=none;fillColor=none;align=left;verticalAlign=top;spacingLeft=4;spacingRight=4;overflow=hidden;rotatable=0;points=[[0,0.5],[1,0.5]];portConstraint=eastwest;whiteSpace=wrap;html=1;" vertex="1" parent="WJk2E3MaFBV2OWUBCjsf-94">
          <mxGeometry y="156" width="181" height="26" as="geometry" />
        </mxCell>
        <mxCell id="WJk2E3MaFBV2OWUBCjsf-101" value="alamat_lengkap" style="text;strokeColor=none;fillColor=none;align=left;verticalAlign=top;spacingLeft=4;spacingRight=4;overflow=hidden;rotatable=0;points=[[0,0.5],[1,0.5]];portConstraint=eastwest;whiteSpace=wrap;html=1;" vertex="1" parent="WJk2E3MaFBV2OWUBCjsf-94">
          <mxGeometry y="182" width="181" height="26" as="geometry" />
        </mxCell>
        <mxCell id="WJk2E3MaFBV2OWUBCjsf-102" value="status" style="text;strokeColor=none;fillColor=none;align=left;verticalAlign=top;spacingLeft=4;spacingRight=4;overflow=hidden;rotatable=0;points=[[0,0.5],[1,0.5]];portConstraint=eastwest;whiteSpace=wrap;html=1;" vertex="1" parent="WJk2E3MaFBV2OWUBCjsf-94">
          <mxGeometry y="208" width="181" height="26" as="geometry" />
        </mxCell>
        <mxCell id="WJk2E3MaFBV2OWUBCjsf-103" value="kurir" style="text;strokeColor=none;fillColor=none;align=left;verticalAlign=top;spacingLeft=4;spacingRight=4;overflow=hidden;rotatable=0;points=[[0,0.5],[1,0.5]];portConstraint=eastwest;whiteSpace=wrap;html=1;" vertex="1" parent="WJk2E3MaFBV2OWUBCjsf-94">
          <mxGeometry y="234" width="181" height="26" as="geometry" />
        </mxCell>
        <mxCell id="WJk2E3MaFBV2OWUBCjsf-104" value="total" style="text;strokeColor=none;fillColor=none;align=left;verticalAlign=top;spacingLeft=4;spacingRight=4;overflow=hidden;rotatable=0;points=[[0,0.5],[1,0.5]];portConstraint=eastwest;whiteSpace=wrap;html=1;" vertex="1" parent="WJk2E3MaFBV2OWUBCjsf-94">
          <mxGeometry y="260" width="181" height="26" as="geometry" />
        </mxCell>
        <mxCell id="WJk2E3MaFBV2OWUBCjsf-105" value="created_at" style="text;strokeColor=none;fillColor=none;align=left;verticalAlign=top;spacingLeft=4;spacingRight=4;overflow=hidden;rotatable=0;points=[[0,0.5],[1,0.5]];portConstraint=eastwest;whiteSpace=wrap;html=1;" vertex="1" parent="WJk2E3MaFBV2OWUBCjsf-94">
          <mxGeometry y="286" width="181" height="26" as="geometry" />
        </mxCell>
        <mxCell id="WJk2E3MaFBV2OWUBCjsf-106" value="updated_at" style="text;strokeColor=none;fillColor=none;align=left;verticalAlign=top;spacingLeft=4;spacingRight=4;overflow=hidden;rotatable=0;points=[[0,0.5],[1,0.5]];portConstraint=eastwest;whiteSpace=wrap;html=1;" vertex="1" parent="WJk2E3MaFBV2OWUBCjsf-94">
          <mxGeometry y="312" width="181" height="26" as="geometry" />
        </mxCell>
        <mxCell id="WJk2E3MaFBV2OWUBCjsf-112" value="detail_transaksis" style="swimlane;fontStyle=1;align=center;verticalAlign=top;childLayout=stackLayout;horizontal=1;startSize=26;horizontalStack=0;resizeParent=1;resizeParentMax=0;resizeLast=0;collapsible=1;marginBottom=0;whiteSpace=wrap;html=1;" vertex="1" parent="WIyWlLk6GJQsqaUBKTNV-1">
          <mxGeometry x="830" y="296" width="181" height="276" as="geometry" />
        </mxCell>
        <mxCell id="WJk2E3MaFBV2OWUBCjsf-113" value="+ id: bigint(20)" style="text;strokeColor=none;fillColor=none;align=left;verticalAlign=top;spacingLeft=4;spacingRight=4;overflow=hidden;rotatable=0;points=[[0,0.5],[1,0.5]];portConstraint=eastwest;whiteSpace=wrap;html=1;" vertex="1" parent="WJk2E3MaFBV2OWUBCjsf-112">
          <mxGeometry y="26" width="181" height="26" as="geometry" />
        </mxCell>
        <mxCell id="WJk2E3MaFBV2OWUBCjsf-114" value="+ transaksi: bigint(20)" style="text;strokeColor=none;fillColor=none;align=left;verticalAlign=top;spacingLeft=4;spacingRight=4;overflow=hidden;rotatable=0;points=[[0,0.5],[1,0.5]];portConstraint=eastwest;whiteSpace=wrap;html=1;" vertex="1" parent="WJk2E3MaFBV2OWUBCjsf-112">
          <mxGeometry y="52" width="181" height="26" as="geometry" />
        </mxCell>
        <mxCell id="WJk2E3MaFBV2OWUBCjsf-115" value="+ name: varchar(50)" style="text;strokeColor=none;fillColor=none;align=left;verticalAlign=top;spacingLeft=4;spacingRight=4;overflow=hidden;rotatable=0;points=[[0,0.5],[1,0.5]];portConstraint=eastwest;whiteSpace=wrap;html=1;" vertex="1" parent="WJk2E3MaFBV2OWUBCjsf-112">
          <mxGeometry y="78" width="181" height="26" as="geometry" />
        </mxCell>
        <mxCell id="WJk2E3MaFBV2OWUBCjsf-116" value="+ price: bigint(20)" style="text;strokeColor=none;fillColor=none;align=left;verticalAlign=top;spacingLeft=4;spacingRight=4;overflow=hidden;rotatable=0;points=[[0,0.5],[1,0.5]];portConstraint=eastwest;whiteSpace=wrap;html=1;" vertex="1" parent="WJk2E3MaFBV2OWUBCjsf-112">
          <mxGeometry y="104" width="181" height="26" as="geometry" />
        </mxCell>
        <mxCell id="WJk2E3MaFBV2OWUBCjsf-117" value="+ jumlah: int(11)" style="text;strokeColor=none;fillColor=none;align=left;verticalAlign=top;spacingLeft=4;spacingRight=4;overflow=hidden;rotatable=0;points=[[0,0.5],[1,0.5]];portConstraint=eastwest;whiteSpace=wrap;html=1;" vertex="1" parent="WJk2E3MaFBV2OWUBCjsf-112">
          <mxGeometry y="130" width="181" height="26" as="geometry" />
        </mxCell>
        <mxCell id="WJk2E3MaFBV2OWUBCjsf-118" value="+ created_at: timestamp" style="text;strokeColor=none;fillColor=none;align=left;verticalAlign=top;spacingLeft=4;spacingRight=4;overflow=hidden;rotatable=0;points=[[0,0.5],[1,0.5]];portConstraint=eastwest;whiteSpace=wrap;html=1;" vertex="1" parent="WJk2E3MaFBV2OWUBCjsf-112">
          <mxGeometry y="156" width="181" height="26" as="geometry" />
        </mxCell>
        <mxCell id="WJk2E3MaFBV2OWUBCjsf-119" value="+ updated_at_at: timestamp" style="text;strokeColor=none;fillColor=none;align=left;verticalAlign=top;spacingLeft=4;spacingRight=4;overflow=hidden;rotatable=0;points=[[0,0.5],[1,0.5]];portConstraint=eastwest;whiteSpace=wrap;html=1;" vertex="1" parent="WJk2E3MaFBV2OWUBCjsf-112">
          <mxGeometry y="182" width="181" height="26" as="geometry" />
        </mxCell>
        <mxCell id="WJk2E3MaFBV2OWUBCjsf-120" value="" style="line;strokeWidth=1;fillColor=none;align=left;verticalAlign=middle;spacingTop=-1;spacingLeft=3;spacingRight=3;rotatable=0;labelPosition=right;points=[];portConstraint=eastwest;strokeColor=inherit;" vertex="1" parent="WJk2E3MaFBV2OWUBCjsf-112">
          <mxGeometry y="208" width="181" height="8" as="geometry" />
        </mxCell>
        <mxCell id="WJk2E3MaFBV2OWUBCjsf-121" style="line;strokeWidth=1;fillColor=none;align=left;verticalAlign=middle;spacingTop=-1;spacingLeft=3;spacingRight=3;rotatable=0;labelPosition=right;points=[];portConstraint=eastwest;strokeColor=inherit;" vertex="1" parent="WJk2E3MaFBV2OWUBCjsf-112">
          <mxGeometry y="216" width="181" height="8" as="geometry" />
        </mxCell>
        <mxCell id="WJk2E3MaFBV2OWUBCjsf-122" value="+ Read()" style="text;strokeColor=none;fillColor=none;align=left;verticalAlign=top;spacingLeft=4;spacingRight=4;overflow=hidden;rotatable=0;points=[[0,0.5],[1,0.5]];portConstraint=eastwest;whiteSpace=wrap;html=1;" vertex="1" parent="WJk2E3MaFBV2OWUBCjsf-112">
          <mxGeometry y="224" width="181" height="26" as="geometry" />
        </mxCell>
        <mxCell id="WJk2E3MaFBV2OWUBCjsf-123" value="+ Create()" style="text;strokeColor=none;fillColor=none;align=left;verticalAlign=top;spacingLeft=4;spacingRight=4;overflow=hidden;rotatable=0;points=[[0,0.5],[1,0.5]];portConstraint=eastwest;whiteSpace=wrap;html=1;" vertex="1" parent="WJk2E3MaFBV2OWUBCjsf-112">
          <mxGeometry y="250" width="181" height="26" as="geometry" />
        </mxCell>
        <mxCell id="WJk2E3MaFBV2OWUBCjsf-124" value="provinces" style="swimlane;fontStyle=1;align=center;verticalAlign=top;childLayout=stackLayout;horizontal=1;startSize=26;horizontalStack=0;resizeParent=1;resizeParentMax=0;resizeLast=0;collapsible=1;marginBottom=0;whiteSpace=wrap;html=1;" vertex="1" parent="WIyWlLk6GJQsqaUBKTNV-1">
          <mxGeometry x="20" y="282" width="181" height="130" as="geometry" />
        </mxCell>
        <mxCell id="WJk2E3MaFBV2OWUBCjsf-125" value="id" style="text;strokeColor=none;fillColor=none;align=left;verticalAlign=top;spacingLeft=4;spacingRight=4;overflow=hidden;rotatable=0;points=[[0,0.5],[1,0.5]];portConstraint=eastwest;whiteSpace=wrap;html=1;" vertex="1" parent="WJk2E3MaFBV2OWUBCjsf-124">
          <mxGeometry y="26" width="181" height="26" as="geometry" />
        </mxCell>
        <mxCell id="WJk2E3MaFBV2OWUBCjsf-126" value="name" style="text;strokeColor=none;fillColor=none;align=left;verticalAlign=top;spacingLeft=4;spacingRight=4;overflow=hidden;rotatable=0;points=[[0,0.5],[1,0.5]];portConstraint=eastwest;whiteSpace=wrap;html=1;" vertex="1" parent="WJk2E3MaFBV2OWUBCjsf-124">
          <mxGeometry y="52" width="181" height="26" as="geometry" />
        </mxCell>
        <mxCell id="WJk2E3MaFBV2OWUBCjsf-127" value="created_at" style="text;strokeColor=none;fillColor=none;align=left;verticalAlign=top;spacingLeft=4;spacingRight=4;overflow=hidden;rotatable=0;points=[[0,0.5],[1,0.5]];portConstraint=eastwest;whiteSpace=wrap;html=1;" vertex="1" parent="WJk2E3MaFBV2OWUBCjsf-124">
          <mxGeometry y="78" width="181" height="26" as="geometry" />
        </mxCell>
        <mxCell id="WJk2E3MaFBV2OWUBCjsf-128" value="updated_at" style="text;strokeColor=none;fillColor=none;align=left;verticalAlign=top;spacingLeft=4;spacingRight=4;overflow=hidden;rotatable=0;points=[[0,0.5],[1,0.5]];portConstraint=eastwest;whiteSpace=wrap;html=1;" vertex="1" parent="WJk2E3MaFBV2OWUBCjsf-124">
          <mxGeometry y="104" width="181" height="26" as="geometry" />
        </mxCell>
        <mxCell id="WJk2E3MaFBV2OWUBCjsf-131" value="permissions" style="swimlane;fontStyle=1;align=center;verticalAlign=top;childLayout=stackLayout;horizontal=1;startSize=26;horizontalStack=0;resizeParent=1;resizeParentMax=0;resizeLast=0;collapsible=1;marginBottom=0;whiteSpace=wrap;html=1;" vertex="1" parent="WIyWlLk6GJQsqaUBKTNV-1">
          <mxGeometry y="823" width="181" height="190" as="geometry" />
        </mxCell>
        <mxCell id="WJk2E3MaFBV2OWUBCjsf-132" value="+ id: bigint(20)" style="text;strokeColor=none;fillColor=none;align=left;verticalAlign=top;spacingLeft=4;spacingRight=4;overflow=hidden;rotatable=0;points=[[0,0.5],[1,0.5]];portConstraint=eastwest;whiteSpace=wrap;html=1;" vertex="1" parent="WJk2E3MaFBV2OWUBCjsf-131">
          <mxGeometry y="26" width="181" height="26" as="geometry" />
        </mxCell>
        <mxCell id="WJk2E3MaFBV2OWUBCjsf-133" value="+ name: varchar(50)" style="text;strokeColor=none;fillColor=none;align=left;verticalAlign=top;spacingLeft=4;spacingRight=4;overflow=hidden;rotatable=0;points=[[0,0.5],[1,0.5]];portConstraint=eastwest;whiteSpace=wrap;html=1;" vertex="1" parent="WJk2E3MaFBV2OWUBCjsf-131">
          <mxGeometry y="52" width="181" height="26" as="geometry" />
        </mxCell>
        <mxCell id="WJk2E3MaFBV2OWUBCjsf-134" value="+ guard_name: varchar(50)" style="text;strokeColor=none;fillColor=none;align=left;verticalAlign=top;spacingLeft=4;spacingRight=4;overflow=hidden;rotatable=0;points=[[0,0.5],[1,0.5]];portConstraint=eastwest;whiteSpace=wrap;html=1;" vertex="1" parent="WJk2E3MaFBV2OWUBCjsf-131">
          <mxGeometry y="78" width="181" height="26" as="geometry" />
        </mxCell>
        <mxCell id="WJk2E3MaFBV2OWUBCjsf-135" value="+ created_at: timestamp" style="text;strokeColor=none;fillColor=none;align=left;verticalAlign=top;spacingLeft=4;spacingRight=4;overflow=hidden;rotatable=0;points=[[0,0.5],[1,0.5]];portConstraint=eastwest;whiteSpace=wrap;html=1;" vertex="1" parent="WJk2E3MaFBV2OWUBCjsf-131">
          <mxGeometry y="104" width="181" height="26" as="geometry" />
        </mxCell>
        <mxCell id="WJk2E3MaFBV2OWUBCjsf-136" value="+ updated_at_at: timestamp" style="text;strokeColor=none;fillColor=none;align=left;verticalAlign=top;spacingLeft=4;spacingRight=4;overflow=hidden;rotatable=0;points=[[0,0.5],[1,0.5]];portConstraint=eastwest;whiteSpace=wrap;html=1;" vertex="1" parent="WJk2E3MaFBV2OWUBCjsf-131">
          <mxGeometry y="130" width="181" height="26" as="geometry" />
        </mxCell>
        <mxCell id="WJk2E3MaFBV2OWUBCjsf-137" value="" style="line;strokeWidth=1;fillColor=none;align=left;verticalAlign=middle;spacingTop=-1;spacingLeft=3;spacingRight=3;rotatable=0;labelPosition=right;points=[];portConstraint=eastwest;strokeColor=inherit;" vertex="1" parent="WJk2E3MaFBV2OWUBCjsf-131">
          <mxGeometry y="156" width="181" height="8" as="geometry" />
        </mxCell>
        <mxCell id="WJk2E3MaFBV2OWUBCjsf-138" value="+ CRUD()" style="text;strokeColor=none;fillColor=none;align=left;verticalAlign=top;spacingLeft=4;spacingRight=4;overflow=hidden;rotatable=0;points=[[0,0.5],[1,0.5]];portConstraint=eastwest;whiteSpace=wrap;html=1;" vertex="1" parent="WJk2E3MaFBV2OWUBCjsf-131">
          <mxGeometry y="164" width="181" height="26" as="geometry" />
        </mxCell>
        <mxCell id="WJk2E3MaFBV2OWUBCjsf-139" value="role_has_permissions" style="swimlane;fontStyle=1;align=center;verticalAlign=top;childLayout=stackLayout;horizontal=1;startSize=26;horizontalStack=0;resizeParent=1;resizeParentMax=0;resizeLast=0;collapsible=1;marginBottom=0;whiteSpace=wrap;html=1;" vertex="1" parent="WIyWlLk6GJQsqaUBKTNV-1">
          <mxGeometry x="220" y="823" width="181" height="112" as="geometry" />
        </mxCell>
        <mxCell id="WJk2E3MaFBV2OWUBCjsf-140" value="+ permissions_id: bigint(20)" style="text;strokeColor=none;fillColor=none;align=left;verticalAlign=top;spacingLeft=4;spacingRight=4;overflow=hidden;rotatable=0;points=[[0,0.5],[1,0.5]];portConstraint=eastwest;whiteSpace=wrap;html=1;" vertex="1" parent="WJk2E3MaFBV2OWUBCjsf-139">
          <mxGeometry y="26" width="181" height="26" as="geometry" />
        </mxCell>
        <mxCell id="WJk2E3MaFBV2OWUBCjsf-141" value="+ role_id: bigint(20)" style="text;strokeColor=none;fillColor=none;align=left;verticalAlign=top;spacingLeft=4;spacingRight=4;overflow=hidden;rotatable=0;points=[[0,0.5],[1,0.5]];portConstraint=eastwest;whiteSpace=wrap;html=1;" vertex="1" parent="WJk2E3MaFBV2OWUBCjsf-139">
          <mxGeometry y="52" width="181" height="26" as="geometry" />
        </mxCell>
        <mxCell id="WJk2E3MaFBV2OWUBCjsf-142" value="" style="line;strokeWidth=1;fillColor=none;align=left;verticalAlign=middle;spacingTop=-1;spacingLeft=3;spacingRight=3;rotatable=0;labelPosition=right;points=[];portConstraint=eastwest;strokeColor=inherit;" vertex="1" parent="WJk2E3MaFBV2OWUBCjsf-139">
          <mxGeometry y="78" width="181" height="8" as="geometry" />
        </mxCell>
        <mxCell id="WJk2E3MaFBV2OWUBCjsf-143" value="+ assignPermissions()" style="text;strokeColor=none;fillColor=none;align=left;verticalAlign=top;spacingLeft=4;spacingRight=4;overflow=hidden;rotatable=0;points=[[0,0.5],[1,0.5]];portConstraint=eastwest;whiteSpace=wrap;html=1;" vertex="1" parent="WJk2E3MaFBV2OWUBCjsf-139">
          <mxGeometry y="86" width="181" height="26" as="geometry" />
        </mxCell>
        <mxCell id="WJk2E3MaFBV2OWUBCjsf-144" value="roles" style="swimlane;fontStyle=1;align=center;verticalAlign=top;childLayout=stackLayout;horizontal=1;startSize=26;horizontalStack=0;resizeParent=1;resizeParentMax=0;resizeLast=0;collapsible=1;marginBottom=0;whiteSpace=wrap;html=1;" vertex="1" parent="WIyWlLk6GJQsqaUBKTNV-1">
          <mxGeometry x="443" y="823" width="181" height="190" as="geometry" />
        </mxCell>
        <mxCell id="WJk2E3MaFBV2OWUBCjsf-145" value="+ id: bigint(20)" style="text;strokeColor=none;fillColor=none;align=left;verticalAlign=top;spacingLeft=4;spacingRight=4;overflow=hidden;rotatable=0;points=[[0,0.5],[1,0.5]];portConstraint=eastwest;whiteSpace=wrap;html=1;" vertex="1" parent="WJk2E3MaFBV2OWUBCjsf-144">
          <mxGeometry y="26" width="181" height="26" as="geometry" />
        </mxCell>
        <mxCell id="WJk2E3MaFBV2OWUBCjsf-146" value="+ name: varchar(50)" style="text;strokeColor=none;fillColor=none;align=left;verticalAlign=top;spacingLeft=4;spacingRight=4;overflow=hidden;rotatable=0;points=[[0,0.5],[1,0.5]];portConstraint=eastwest;whiteSpace=wrap;html=1;" vertex="1" parent="WJk2E3MaFBV2OWUBCjsf-144">
          <mxGeometry y="52" width="181" height="26" as="geometry" />
        </mxCell>
        <mxCell id="WJk2E3MaFBV2OWUBCjsf-147" value="+ guard_name: varchar(50)" style="text;strokeColor=none;fillColor=none;align=left;verticalAlign=top;spacingLeft=4;spacingRight=4;overflow=hidden;rotatable=0;points=[[0,0.5],[1,0.5]];portConstraint=eastwest;whiteSpace=wrap;html=1;" vertex="1" parent="WJk2E3MaFBV2OWUBCjsf-144">
          <mxGeometry y="78" width="181" height="26" as="geometry" />
        </mxCell>
        <mxCell id="WJk2E3MaFBV2OWUBCjsf-148" value="+ created_at: timestamp" style="text;strokeColor=none;fillColor=none;align=left;verticalAlign=top;spacingLeft=4;spacingRight=4;overflow=hidden;rotatable=0;points=[[0,0.5],[1,0.5]];portConstraint=eastwest;whiteSpace=wrap;html=1;" vertex="1" parent="WJk2E3MaFBV2OWUBCjsf-144">
          <mxGeometry y="104" width="181" height="26" as="geometry" />
        </mxCell>
        <mxCell id="WJk2E3MaFBV2OWUBCjsf-149" value="+ updated_at_at: timestamp" style="text;strokeColor=none;fillColor=none;align=left;verticalAlign=top;spacingLeft=4;spacingRight=4;overflow=hidden;rotatable=0;points=[[0,0.5],[1,0.5]];portConstraint=eastwest;whiteSpace=wrap;html=1;" vertex="1" parent="WJk2E3MaFBV2OWUBCjsf-144">
          <mxGeometry y="130" width="181" height="26" as="geometry" />
        </mxCell>
        <mxCell id="WJk2E3MaFBV2OWUBCjsf-150" value="" style="line;strokeWidth=1;fillColor=none;align=left;verticalAlign=middle;spacingTop=-1;spacingLeft=3;spacingRight=3;rotatable=0;labelPosition=right;points=[];portConstraint=eastwest;strokeColor=inherit;" vertex="1" parent="WJk2E3MaFBV2OWUBCjsf-144">
          <mxGeometry y="156" width="181" height="8" as="geometry" />
        </mxCell>
        <mxCell id="WJk2E3MaFBV2OWUBCjsf-151" value="+ CRUD()" style="text;strokeColor=none;fillColor=none;align=left;verticalAlign=top;spacingLeft=4;spacingRight=4;overflow=hidden;rotatable=0;points=[[0,0.5],[1,0.5]];portConstraint=eastwest;whiteSpace=wrap;html=1;" vertex="1" parent="WJk2E3MaFBV2OWUBCjsf-144">
          <mxGeometry y="164" width="181" height="26" as="geometry" />
        </mxCell>
        <mxCell id="WJk2E3MaFBV2OWUBCjsf-152" value="role_has_permissions" style="swimlane;fontStyle=1;align=center;verticalAlign=top;childLayout=stackLayout;horizontal=1;startSize=26;horizontalStack=0;resizeParent=1;resizeParentMax=0;resizeLast=0;collapsible=1;marginBottom=0;whiteSpace=wrap;html=1;" vertex="1" parent="WIyWlLk6GJQsqaUBKTNV-1">
          <mxGeometry x="650" y="823" width="181" height="138" as="geometry" />
        </mxCell>
        <mxCell id="WJk2E3MaFBV2OWUBCjsf-153" value="+ role_id: bigint(20)" style="text;strokeColor=none;fillColor=none;align=left;verticalAlign=top;spacingLeft=4;spacingRight=4;overflow=hidden;rotatable=0;points=[[0,0.5],[1,0.5]];portConstraint=eastwest;whiteSpace=wrap;html=1;" vertex="1" parent="WJk2E3MaFBV2OWUBCjsf-152">
          <mxGeometry y="26" width="181" height="26" as="geometry" />
        </mxCell>
        <mxCell id="WJk2E3MaFBV2OWUBCjsf-154" value="+ model_type: varchar(50)" style="text;strokeColor=none;fillColor=none;align=left;verticalAlign=top;spacingLeft=4;spacingRight=4;overflow=hidden;rotatable=0;points=[[0,0.5],[1,0.5]];portConstraint=eastwest;whiteSpace=wrap;html=1;" vertex="1" parent="WJk2E3MaFBV2OWUBCjsf-152">
          <mxGeometry y="52" width="181" height="26" as="geometry" />
        </mxCell>
        <mxCell id="WJk2E3MaFBV2OWUBCjsf-155" value="+ model_id: bigint(20)" style="text;strokeColor=none;fillColor=none;align=left;verticalAlign=top;spacingLeft=4;spacingRight=4;overflow=hidden;rotatable=0;points=[[0,0.5],[1,0.5]];portConstraint=eastwest;whiteSpace=wrap;html=1;" vertex="1" parent="WJk2E3MaFBV2OWUBCjsf-152">
          <mxGeometry y="78" width="181" height="26" as="geometry" />
        </mxCell>
        <mxCell id="WJk2E3MaFBV2OWUBCjsf-156" value="" style="line;strokeWidth=1;fillColor=none;align=left;verticalAlign=middle;spacingTop=-1;spacingLeft=3;spacingRight=3;rotatable=0;labelPosition=right;points=[];portConstraint=eastwest;strokeColor=inherit;" vertex="1" parent="WJk2E3MaFBV2OWUBCjsf-152">
          <mxGeometry y="104" width="181" height="8" as="geometry" />
        </mxCell>
        <mxCell id="WJk2E3MaFBV2OWUBCjsf-157" value="+ assignRole()" style="text;strokeColor=none;fillColor=none;align=left;verticalAlign=top;spacingLeft=4;spacingRight=4;overflow=hidden;rotatable=0;points=[[0,0.5],[1,0.5]];portConstraint=eastwest;whiteSpace=wrap;html=1;" vertex="1" parent="WJk2E3MaFBV2OWUBCjsf-152">
          <mxGeometry y="112" width="181" height="26" as="geometry" />
        </mxCell>
        <mxCell id="WJk2E3MaFBV2OWUBCjsf-158" value="password_resets" style="swimlane;fontStyle=1;align=center;verticalAlign=top;childLayout=stackLayout;horizontal=1;startSize=26;horizontalStack=0;resizeParent=1;resizeParentMax=0;resizeLast=0;collapsible=1;marginBottom=0;whiteSpace=wrap;html=1;" vertex="1" parent="WIyWlLk6GJQsqaUBKTNV-1">
          <mxGeometry x="870" y="823" width="181" height="138" as="geometry" />
        </mxCell>
        <mxCell id="WJk2E3MaFBV2OWUBCjsf-159" value="+ email: varchar(50)" style="text;strokeColor=none;fillColor=none;align=left;verticalAlign=top;spacingLeft=4;spacingRight=4;overflow=hidden;rotatable=0;points=[[0,0.5],[1,0.5]];portConstraint=eastwest;whiteSpace=wrap;html=1;" vertex="1" parent="WJk2E3MaFBV2OWUBCjsf-158">
          <mxGeometry y="26" width="181" height="26" as="geometry" />
        </mxCell>
        <mxCell id="WJk2E3MaFBV2OWUBCjsf-160" value="+ token: varchar(50)" style="text;strokeColor=none;fillColor=none;align=left;verticalAlign=top;spacingLeft=4;spacingRight=4;overflow=hidden;rotatable=0;points=[[0,0.5],[1,0.5]];portConstraint=eastwest;whiteSpace=wrap;html=1;" vertex="1" parent="WJk2E3MaFBV2OWUBCjsf-158">
          <mxGeometry y="52" width="181" height="26" as="geometry" />
        </mxCell>
        <mxCell id="WJk2E3MaFBV2OWUBCjsf-161" value="+ created_at: timestamp" style="text;strokeColor=none;fillColor=none;align=left;verticalAlign=top;spacingLeft=4;spacingRight=4;overflow=hidden;rotatable=0;points=[[0,0.5],[1,0.5]];portConstraint=eastwest;whiteSpace=wrap;html=1;" vertex="1" parent="WJk2E3MaFBV2OWUBCjsf-158">
          <mxGeometry y="78" width="181" height="26" as="geometry" />
        </mxCell>
        <mxCell id="WJk2E3MaFBV2OWUBCjsf-162" value="" style="line;strokeWidth=1;fillColor=none;align=left;verticalAlign=middle;spacingTop=-1;spacingLeft=3;spacingRight=3;rotatable=0;labelPosition=right;points=[];portConstraint=eastwest;strokeColor=inherit;" vertex="1" parent="WJk2E3MaFBV2OWUBCjsf-158">
          <mxGeometry y="104" width="181" height="8" as="geometry" />
        </mxCell>
        <mxCell id="WJk2E3MaFBV2OWUBCjsf-163" value="+ Create()" style="text;strokeColor=none;fillColor=none;align=left;verticalAlign=top;spacingLeft=4;spacingRight=4;overflow=hidden;rotatable=0;points=[[0,0.5],[1,0.5]];portConstraint=eastwest;whiteSpace=wrap;html=1;" vertex="1" parent="WJk2E3MaFBV2OWUBCjsf-158">
          <mxGeometry y="112" width="181" height="26" as="geometry" />
        </mxCell>
        <mxCell id="WJk2E3MaFBV2OWUBCjsf-173" style="edgeStyle=orthogonalEdgeStyle;rounded=0;orthogonalLoop=1;jettySize=auto;html=1;" edge="1" parent="WIyWlLk6GJQsqaUBKTNV-1" source="WJk2E3MaFBV2OWUBCjsf-95" target="WJk2E3MaFBV2OWUBCjsf-114">
          <mxGeometry relative="1" as="geometry" />
        </mxCell>
        <mxCell id="WJk2E3MaFBV2OWUBCjsf-174" style="edgeStyle=orthogonalEdgeStyle;rounded=0;orthogonalLoop=1;jettySize=auto;html=1;" edge="1" parent="WIyWlLk6GJQsqaUBKTNV-1" source="WJk2E3MaFBV2OWUBCjsf-132" target="WJk2E3MaFBV2OWUBCjsf-140">
          <mxGeometry relative="1" as="geometry" />
        </mxCell>
        <mxCell id="WJk2E3MaFBV2OWUBCjsf-175" style="edgeStyle=orthogonalEdgeStyle;rounded=0;orthogonalLoop=1;jettySize=auto;html=1;" edge="1" parent="WIyWlLk6GJQsqaUBKTNV-1" source="WJk2E3MaFBV2OWUBCjsf-145" target="WJk2E3MaFBV2OWUBCjsf-141">
          <mxGeometry relative="1" as="geometry" />
        </mxCell>
        <mxCell id="WJk2E3MaFBV2OWUBCjsf-176" style="edgeStyle=orthogonalEdgeStyle;rounded=0;orthogonalLoop=1;jettySize=auto;html=1;" edge="1" parent="WIyWlLk6GJQsqaUBKTNV-1" source="WJk2E3MaFBV2OWUBCjsf-145" target="WJk2E3MaFBV2OWUBCjsf-153">
          <mxGeometry relative="1" as="geometry" />
        </mxCell>
      </root>
    </mxGraphModel>
  </diagram>
  <diagram id="D-DYEoIxNAwrZse3hyzI" name="class">
    <mxGraphModel dx="3139" dy="1137" grid="1" gridSize="10" guides="1" tooltips="1" connect="1" arrows="1" fold="1" page="1" pageScale="1" pageWidth="1169" pageHeight="827" math="0" shadow="0">
      <root>
        <mxCell id="0" />
        <mxCell id="1" parent="0" />
        <mxCell id="KtA02jtV5_ZHFJ8k51ah-3" value="profiles" style="swimlane;fontStyle=1;align=center;verticalAlign=top;childLayout=stackLayout;horizontal=1;startSize=26;horizontalStack=0;resizeParent=1;resizeParentMax=0;resizeLast=0;collapsible=1;marginBottom=0;whiteSpace=wrap;html=1;" parent="1" vertex="1">
          <mxGeometry x="320" width="181" height="372" as="geometry" />
        </mxCell>
        <mxCell id="KtA02jtV5_ZHFJ8k51ah-4" value="+ id: bigint(20)" style="text;strokeColor=none;fillColor=none;align=left;verticalAlign=top;spacingLeft=4;spacingRight=4;overflow=hidden;rotatable=0;points=[[0,0.5],[1,0.5]];portConstraint=eastwest;whiteSpace=wrap;html=1;" parent="KtA02jtV5_ZHFJ8k51ah-3" vertex="1">
          <mxGeometry y="26" width="181" height="26" as="geometry" />
        </mxCell>
        <mxCell id="KtA02jtV5_ZHFJ8k51ah-8" value="+ user_id: bigint(20)" style="text;strokeColor=none;fillColor=none;align=left;verticalAlign=top;spacingLeft=4;spacingRight=4;overflow=hidden;rotatable=0;points=[[0,0.5],[1,0.5]];portConstraint=eastwest;whiteSpace=wrap;html=1;" parent="KtA02jtV5_ZHFJ8k51ah-3" vertex="1">
          <mxGeometry y="52" width="181" height="26" as="geometry" />
        </mxCell>
        <mxCell id="VsDIbR9240KIRRW7qfdD-6" value="+ kota_id: bigint(20)" style="text;strokeColor=none;fillColor=none;align=left;verticalAlign=top;spacingLeft=4;spacingRight=4;overflow=hidden;rotatable=0;points=[[0,0.5],[1,0.5]];portConstraint=eastwest;whiteSpace=wrap;html=1;" parent="KtA02jtV5_ZHFJ8k51ah-3" vertex="1">
          <mxGeometry y="78" width="181" height="26" as="geometry" />
        </mxCell>
        <mxCell id="VsDIbR9240KIRRW7qfdD-5" value="+ province_id: bigint(20)" style="text;strokeColor=none;fillColor=none;align=left;verticalAlign=top;spacingLeft=4;spacingRight=4;overflow=hidden;rotatable=0;points=[[0,0.5],[1,0.5]];portConstraint=eastwest;whiteSpace=wrap;html=1;" parent="KtA02jtV5_ZHFJ8k51ah-3" vertex="1">
          <mxGeometry y="104" width="181" height="26" as="geometry" />
        </mxCell>
        <mxCell id="VsDIbR9240KIRRW7qfdD-4" value="+ alamat: text" style="text;strokeColor=none;fillColor=none;align=left;verticalAlign=top;spacingLeft=4;spacingRight=4;overflow=hidden;rotatable=0;points=[[0,0.5],[1,0.5]];portConstraint=eastwest;whiteSpace=wrap;html=1;" parent="KtA02jtV5_ZHFJ8k51ah-3" vertex="1">
          <mxGeometry y="130" width="181" height="26" as="geometry" />
        </mxCell>
        <mxCell id="VsDIbR9240KIRRW7qfdD-3" value="+ no_hp: varchar(20)" style="text;strokeColor=none;fillColor=none;align=left;verticalAlign=top;spacingLeft=4;spacingRight=4;overflow=hidden;rotatable=0;points=[[0,0.5],[1,0.5]];portConstraint=eastwest;whiteSpace=wrap;html=1;" parent="KtA02jtV5_ZHFJ8k51ah-3" vertex="1">
          <mxGeometry y="156" width="181" height="26" as="geometry" />
        </mxCell>
        <mxCell id="VsDIbR9240KIRRW7qfdD-2" value="+ img: varchar(100)" style="text;strokeColor=none;fillColor=none;align=left;verticalAlign=top;spacingLeft=4;spacingRight=4;overflow=hidden;rotatable=0;points=[[0,0.5],[1,0.5]];portConstraint=eastwest;whiteSpace=wrap;html=1;" parent="KtA02jtV5_ZHFJ8k51ah-3" vertex="1">
          <mxGeometry y="182" width="181" height="26" as="geometry" />
        </mxCell>
        <mxCell id="VsDIbR9240KIRRW7qfdD-8" value="+ created_at: timestamp" style="text;strokeColor=none;fillColor=none;align=left;verticalAlign=top;spacingLeft=4;spacingRight=4;overflow=hidden;rotatable=0;points=[[0,0.5],[1,0.5]];portConstraint=eastwest;whiteSpace=wrap;html=1;" parent="KtA02jtV5_ZHFJ8k51ah-3" vertex="1">
          <mxGeometry y="208" width="181" height="26" as="geometry" />
        </mxCell>
        <mxCell id="VsDIbR9240KIRRW7qfdD-7" value="+ updated_at_at: timestamp" style="text;strokeColor=none;fillColor=none;align=left;verticalAlign=top;spacingLeft=4;spacingRight=4;overflow=hidden;rotatable=0;points=[[0,0.5],[1,0.5]];portConstraint=eastwest;whiteSpace=wrap;html=1;" parent="KtA02jtV5_ZHFJ8k51ah-3" vertex="1">
          <mxGeometry y="234" width="181" height="26" as="geometry" />
        </mxCell>
        <mxCell id="KtA02jtV5_ZHFJ8k51ah-5" value="" style="line;strokeWidth=1;fillColor=none;align=left;verticalAlign=middle;spacingTop=-1;spacingLeft=3;spacingRight=3;rotatable=0;labelPosition=right;points=[];portConstraint=eastwest;strokeColor=inherit;" parent="KtA02jtV5_ZHFJ8k51ah-3" vertex="1">
          <mxGeometry y="260" width="181" height="8" as="geometry" />
        </mxCell>
        <mxCell id="KtA02jtV5_ZHFJ8k51ah-6" value="+ updateFoto()" style="text;strokeColor=none;fillColor=none;align=left;verticalAlign=top;spacingLeft=4;spacingRight=4;overflow=hidden;rotatable=0;points=[[0,0.5],[1,0.5]];portConstraint=eastwest;whiteSpace=wrap;html=1;" parent="KtA02jtV5_ZHFJ8k51ah-3" vertex="1">
          <mxGeometry y="268" width="181" height="26" as="geometry" />
        </mxCell>
        <mxCell id="JjWtq-WbktGqVJIk80bh-3" value="+ updateInformation()" style="text;strokeColor=none;fillColor=none;align=left;verticalAlign=top;spacingLeft=4;spacingRight=4;overflow=hidden;rotatable=0;points=[[0,0.5],[1,0.5]];portConstraint=eastwest;whiteSpace=wrap;html=1;" parent="KtA02jtV5_ZHFJ8k51ah-3" vertex="1">
          <mxGeometry y="294" width="181" height="26" as="geometry" />
        </mxCell>
        <mxCell id="JjWtq-WbktGqVJIk80bh-11" value="+ Create()" style="text;strokeColor=none;fillColor=none;align=left;verticalAlign=top;spacingLeft=4;spacingRight=4;overflow=hidden;rotatable=0;points=[[0,0.5],[1,0.5]];portConstraint=eastwest;whiteSpace=wrap;html=1;" parent="KtA02jtV5_ZHFJ8k51ah-3" vertex="1">
          <mxGeometry y="320" width="181" height="26" as="geometry" />
        </mxCell>
        <mxCell id="JjWtq-WbktGqVJIk80bh-10" value="+ Read()" style="text;strokeColor=none;fillColor=none;align=left;verticalAlign=top;spacingLeft=4;spacingRight=4;overflow=hidden;rotatable=0;points=[[0,0.5],[1,0.5]];portConstraint=eastwest;whiteSpace=wrap;html=1;" parent="KtA02jtV5_ZHFJ8k51ah-3" vertex="1">
          <mxGeometry y="346" width="181" height="26" as="geometry" />
        </mxCell>
        <mxCell id="VsDIbR9240KIRRW7qfdD-9" value="users" style="swimlane;fontStyle=1;align=center;verticalAlign=top;childLayout=stackLayout;horizontal=1;startSize=26;horizontalStack=0;resizeParent=1;resizeParentMax=0;resizeLast=0;collapsible=1;marginBottom=0;whiteSpace=wrap;html=1;" parent="1" vertex="1">
          <mxGeometry x="570" width="201" height="294" as="geometry" />
        </mxCell>
        <mxCell id="VsDIbR9240KIRRW7qfdD-10" value="+ id: bigint(20)" style="text;strokeColor=none;fillColor=none;align=left;verticalAlign=top;spacingLeft=4;spacingRight=4;overflow=hidden;rotatable=0;points=[[0,0.5],[1,0.5]];portConstraint=eastwest;whiteSpace=wrap;html=1;" parent="VsDIbR9240KIRRW7qfdD-9" vertex="1">
          <mxGeometry y="26" width="201" height="26" as="geometry" />
        </mxCell>
        <mxCell id="VsDIbR9240KIRRW7qfdD-11" value="+ name: varchar(50)" style="text;strokeColor=none;fillColor=none;align=left;verticalAlign=top;spacingLeft=4;spacingRight=4;overflow=hidden;rotatable=0;points=[[0,0.5],[1,0.5]];portConstraint=eastwest;whiteSpace=wrap;html=1;" parent="VsDIbR9240KIRRW7qfdD-9" vertex="1">
          <mxGeometry y="52" width="201" height="26" as="geometry" />
        </mxCell>
        <mxCell id="VsDIbR9240KIRRW7qfdD-12" value="+ email: varchar(50)" style="text;strokeColor=none;fillColor=none;align=left;verticalAlign=top;spacingLeft=4;spacingRight=4;overflow=hidden;rotatable=0;points=[[0,0.5],[1,0.5]];portConstraint=eastwest;whiteSpace=wrap;html=1;" parent="VsDIbR9240KIRRW7qfdD-9" vertex="1">
          <mxGeometry y="78" width="201" height="26" as="geometry" />
        </mxCell>
        <mxCell id="VsDIbR9240KIRRW7qfdD-13" value="+ email_verified_at: timestamp" style="text;strokeColor=none;fillColor=none;align=left;verticalAlign=top;spacingLeft=4;spacingRight=4;overflow=hidden;rotatable=0;points=[[0,0.5],[1,0.5]];portConstraint=eastwest;whiteSpace=wrap;html=1;" parent="VsDIbR9240KIRRW7qfdD-9" vertex="1">
          <mxGeometry y="104" width="201" height="26" as="geometry" />
        </mxCell>
        <mxCell id="VsDIbR9240KIRRW7qfdD-14" value="+ password: varchar(100)" style="text;strokeColor=none;fillColor=none;align=left;verticalAlign=top;spacingLeft=4;spacingRight=4;overflow=hidden;rotatable=0;points=[[0,0.5],[1,0.5]];portConstraint=eastwest;whiteSpace=wrap;html=1;" parent="VsDIbR9240KIRRW7qfdD-9" vertex="1">
          <mxGeometry y="130" width="201" height="26" as="geometry" />
        </mxCell>
        <mxCell id="VsDIbR9240KIRRW7qfdD-15" value="+ remember_token: varchar(100)" style="text;strokeColor=none;fillColor=none;align=left;verticalAlign=top;spacingLeft=4;spacingRight=4;overflow=hidden;rotatable=0;points=[[0,0.5],[1,0.5]];portConstraint=eastwest;whiteSpace=wrap;html=1;" parent="VsDIbR9240KIRRW7qfdD-9" vertex="1">
          <mxGeometry y="156" width="201" height="26" as="geometry" />
        </mxCell>
        <mxCell id="VsDIbR9240KIRRW7qfdD-17" value="+ created_at: timestamp" style="text;strokeColor=none;fillColor=none;align=left;verticalAlign=top;spacingLeft=4;spacingRight=4;overflow=hidden;rotatable=0;points=[[0,0.5],[1,0.5]];portConstraint=eastwest;whiteSpace=wrap;html=1;" parent="VsDIbR9240KIRRW7qfdD-9" vertex="1">
          <mxGeometry y="182" width="201" height="26" as="geometry" />
        </mxCell>
        <mxCell id="VsDIbR9240KIRRW7qfdD-18" value="+ updated_at_at: timestamp" style="text;strokeColor=none;fillColor=none;align=left;verticalAlign=top;spacingLeft=4;spacingRight=4;overflow=hidden;rotatable=0;points=[[0,0.5],[1,0.5]];portConstraint=eastwest;whiteSpace=wrap;html=1;" parent="VsDIbR9240KIRRW7qfdD-9" vertex="1">
          <mxGeometry y="208" width="201" height="26" as="geometry" />
        </mxCell>
        <mxCell id="VsDIbR9240KIRRW7qfdD-19" value="" style="line;strokeWidth=1;fillColor=none;align=left;verticalAlign=middle;spacingTop=-1;spacingLeft=3;spacingRight=3;rotatable=0;labelPosition=right;points=[];portConstraint=eastwest;strokeColor=inherit;" parent="VsDIbR9240KIRRW7qfdD-9" vertex="1">
          <mxGeometry y="234" width="201" height="8" as="geometry" />
        </mxCell>
        <mxCell id="VsDIbR9240KIRRW7qfdD-20" value="+ CRUD()" style="text;strokeColor=none;fillColor=none;align=left;verticalAlign=top;spacingLeft=4;spacingRight=4;overflow=hidden;rotatable=0;points=[[0,0.5],[1,0.5]];portConstraint=eastwest;whiteSpace=wrap;html=1;" parent="VsDIbR9240KIRRW7qfdD-9" vertex="1">
          <mxGeometry y="242" width="201" height="26" as="geometry" />
        </mxCell>
        <mxCell id="JjWtq-WbktGqVJIk80bh-4" value="+ assignRole()" style="text;strokeColor=none;fillColor=none;align=left;verticalAlign=top;spacingLeft=4;spacingRight=4;overflow=hidden;rotatable=0;points=[[0,0.5],[1,0.5]];portConstraint=eastwest;whiteSpace=wrap;html=1;" parent="VsDIbR9240KIRRW7qfdD-9" vertex="1">
          <mxGeometry y="268" width="201" height="26" as="geometry" />
        </mxCell>
        <mxCell id="VsDIbR9240KIRRW7qfdD-21" value="keranjang" style="swimlane;fontStyle=1;align=center;verticalAlign=top;childLayout=stackLayout;horizontal=1;startSize=26;horizontalStack=0;resizeParent=1;resizeParentMax=0;resizeLast=0;collapsible=1;marginBottom=0;whiteSpace=wrap;html=1;" parent="1" vertex="1">
          <mxGeometry x="830" width="181" height="216" as="geometry" />
        </mxCell>
        <mxCell id="VsDIbR9240KIRRW7qfdD-22" value="+ id: bigint(20)" style="text;strokeColor=none;fillColor=none;align=left;verticalAlign=top;spacingLeft=4;spacingRight=4;overflow=hidden;rotatable=0;points=[[0,0.5],[1,0.5]];portConstraint=eastwest;whiteSpace=wrap;html=1;" parent="VsDIbR9240KIRRW7qfdD-21" vertex="1">
          <mxGeometry y="26" width="181" height="26" as="geometry" />
        </mxCell>
        <mxCell id="VsDIbR9240KIRRW7qfdD-23" value="+ user_id: bigint(20)" style="text;strokeColor=none;fillColor=none;align=left;verticalAlign=top;spacingLeft=4;spacingRight=4;overflow=hidden;rotatable=0;points=[[0,0.5],[1,0.5]];portConstraint=eastwest;whiteSpace=wrap;html=1;" parent="VsDIbR9240KIRRW7qfdD-21" vertex="1">
          <mxGeometry y="52" width="181" height="26" as="geometry" />
        </mxCell>
        <mxCell id="VsDIbR9240KIRRW7qfdD-24" value="+ product_id: bigint(20)" style="text;strokeColor=none;fillColor=none;align=left;verticalAlign=top;spacingLeft=4;spacingRight=4;overflow=hidden;rotatable=0;points=[[0,0.5],[1,0.5]];portConstraint=eastwest;whiteSpace=wrap;html=1;" parent="VsDIbR9240KIRRW7qfdD-21" vertex="1">
          <mxGeometry y="78" width="181" height="26" as="geometry" />
        </mxCell>
        <mxCell id="VsDIbR9240KIRRW7qfdD-25" value="+ jumlah: int(11)" style="text;strokeColor=none;fillColor=none;align=left;verticalAlign=top;spacingLeft=4;spacingRight=4;overflow=hidden;rotatable=0;points=[[0,0.5],[1,0.5]];portConstraint=eastwest;whiteSpace=wrap;html=1;" parent="VsDIbR9240KIRRW7qfdD-21" vertex="1">
          <mxGeometry y="104" width="181" height="26" as="geometry" />
        </mxCell>
        <mxCell id="VsDIbR9240KIRRW7qfdD-29" value="+ created_at: timestamp" style="text;strokeColor=none;fillColor=none;align=left;verticalAlign=top;spacingLeft=4;spacingRight=4;overflow=hidden;rotatable=0;points=[[0,0.5],[1,0.5]];portConstraint=eastwest;whiteSpace=wrap;html=1;" parent="VsDIbR9240KIRRW7qfdD-21" vertex="1">
          <mxGeometry y="130" width="181" height="26" as="geometry" />
        </mxCell>
        <mxCell id="VsDIbR9240KIRRW7qfdD-30" value="+ updated_at_at: timestamp" style="text;strokeColor=none;fillColor=none;align=left;verticalAlign=top;spacingLeft=4;spacingRight=4;overflow=hidden;rotatable=0;points=[[0,0.5],[1,0.5]];portConstraint=eastwest;whiteSpace=wrap;html=1;" parent="VsDIbR9240KIRRW7qfdD-21" vertex="1">
          <mxGeometry y="156" width="181" height="26" as="geometry" />
        </mxCell>
        <mxCell id="VsDIbR9240KIRRW7qfdD-31" value="" style="line;strokeWidth=1;fillColor=none;align=left;verticalAlign=middle;spacingTop=-1;spacingLeft=3;spacingRight=3;rotatable=0;labelPosition=right;points=[];portConstraint=eastwest;strokeColor=inherit;" parent="VsDIbR9240KIRRW7qfdD-21" vertex="1">
          <mxGeometry y="182" width="181" height="8" as="geometry" />
        </mxCell>
        <mxCell id="VsDIbR9240KIRRW7qfdD-32" value="+ CRUD()" style="text;strokeColor=none;fillColor=none;align=left;verticalAlign=top;spacingLeft=4;spacingRight=4;overflow=hidden;rotatable=0;points=[[0,0.5],[1,0.5]];portConstraint=eastwest;whiteSpace=wrap;html=1;" parent="VsDIbR9240KIRRW7qfdD-21" vertex="1">
          <mxGeometry y="190" width="181" height="26" as="geometry" />
        </mxCell>
        <mxCell id="F9q9TS915zBCrHHgD7F_-1" value="products" style="swimlane;fontStyle=1;align=center;verticalAlign=top;childLayout=stackLayout;horizontal=1;startSize=26;horizontalStack=0;resizeParent=1;resizeParentMax=0;resizeLast=0;collapsible=1;marginBottom=0;whiteSpace=wrap;html=1;" parent="1" vertex="1">
          <mxGeometry x="1090" width="181" height="450" as="geometry" />
        </mxCell>
        <mxCell id="F9q9TS915zBCrHHgD7F_-2" value="+ id: bigint(20)" style="text;strokeColor=none;fillColor=none;align=left;verticalAlign=top;spacingLeft=4;spacingRight=4;overflow=hidden;rotatable=0;points=[[0,0.5],[1,0.5]];portConstraint=eastwest;whiteSpace=wrap;html=1;" parent="F9q9TS915zBCrHHgD7F_-1" vertex="1">
          <mxGeometry y="26" width="181" height="26" as="geometry" />
        </mxCell>
        <mxCell id="F9q9TS915zBCrHHgD7F_-3" value="+ category_id: bigint(20)" style="text;strokeColor=none;fillColor=none;align=left;verticalAlign=top;spacingLeft=4;spacingRight=4;overflow=hidden;rotatable=0;points=[[0,0.5],[1,0.5]];portConstraint=eastwest;whiteSpace=wrap;html=1;" parent="F9q9TS915zBCrHHgD7F_-1" vertex="1">
          <mxGeometry y="52" width="181" height="26" as="geometry" />
        </mxCell>
        <mxCell id="F9q9TS915zBCrHHgD7F_-4" value="+ brand_id: bigint(20)" style="text;strokeColor=none;fillColor=none;align=left;verticalAlign=top;spacingLeft=4;spacingRight=4;overflow=hidden;rotatable=0;points=[[0,0.5],[1,0.5]];portConstraint=eastwest;whiteSpace=wrap;html=1;" parent="F9q9TS915zBCrHHgD7F_-1" vertex="1">
          <mxGeometry y="78" width="181" height="26" as="geometry" />
        </mxCell>
        <mxCell id="F9q9TS915zBCrHHgD7F_-5" value="+ name: varchar(50)" style="text;strokeColor=none;fillColor=none;align=left;verticalAlign=top;spacingLeft=4;spacingRight=4;overflow=hidden;rotatable=0;points=[[0,0.5],[1,0.5]];portConstraint=eastwest;whiteSpace=wrap;html=1;" parent="F9q9TS915zBCrHHgD7F_-1" vertex="1">
          <mxGeometry y="104" width="181" height="26" as="geometry" />
        </mxCell>
        <mxCell id="F9q9TS915zBCrHHgD7F_-6" value="+ slug: varchar(50)" style="text;strokeColor=none;fillColor=none;align=left;verticalAlign=top;spacingLeft=4;spacingRight=4;overflow=hidden;rotatable=0;points=[[0,0.5],[1,0.5]];portConstraint=eastwest;whiteSpace=wrap;html=1;" parent="F9q9TS915zBCrHHgD7F_-1" vertex="1">
          <mxGeometry y="130" width="181" height="26" as="geometry" />
        </mxCell>
        <mxCell id="F9q9TS915zBCrHHgD7F_-7" value="+ price: bigint(20)" style="text;strokeColor=none;fillColor=none;align=left;verticalAlign=top;spacingLeft=4;spacingRight=4;overflow=hidden;rotatable=0;points=[[0,0.5],[1,0.5]];portConstraint=eastwest;whiteSpace=wrap;html=1;" parent="F9q9TS915zBCrHHgD7F_-1" vertex="1">
          <mxGeometry y="156" width="181" height="26" as="geometry" />
        </mxCell>
        <mxCell id="F9q9TS915zBCrHHgD7F_-8" value="+ spesifikasi: longtext" style="text;strokeColor=none;fillColor=none;align=left;verticalAlign=top;spacingLeft=4;spacingRight=4;overflow=hidden;rotatable=0;points=[[0,0.5],[1,0.5]];portConstraint=eastwest;whiteSpace=wrap;html=1;" parent="F9q9TS915zBCrHHgD7F_-1" vertex="1">
          <mxGeometry y="182" width="181" height="26" as="geometry" />
        </mxCell>
        <mxCell id="F9q9TS915zBCrHHgD7F_-14" value="+ stock: int(11)" style="text;strokeColor=none;fillColor=none;align=left;verticalAlign=top;spacingLeft=4;spacingRight=4;overflow=hidden;rotatable=0;points=[[0,0.5],[1,0.5]];portConstraint=eastwest;whiteSpace=wrap;html=1;" parent="F9q9TS915zBCrHHgD7F_-1" vertex="1">
          <mxGeometry y="208" width="181" height="26" as="geometry" />
        </mxCell>
        <mxCell id="F9q9TS915zBCrHHgD7F_-13" value="+ berat: int(11)" style="text;strokeColor=none;fillColor=none;align=left;verticalAlign=top;spacingLeft=4;spacingRight=4;overflow=hidden;rotatable=0;points=[[0,0.5],[1,0.5]];portConstraint=eastwest;whiteSpace=wrap;html=1;" parent="F9q9TS915zBCrHHgD7F_-1" vertex="1">
          <mxGeometry y="234" width="181" height="26" as="geometry" />
        </mxCell>
        <mxCell id="F9q9TS915zBCrHHgD7F_-18" value="+ img1: varchar(100)" style="text;strokeColor=none;fillColor=none;align=left;verticalAlign=top;spacingLeft=4;spacingRight=4;overflow=hidden;rotatable=0;points=[[0,0.5],[1,0.5]];portConstraint=eastwest;whiteSpace=wrap;html=1;" parent="F9q9TS915zBCrHHgD7F_-1" vertex="1">
          <mxGeometry y="260" width="181" height="26" as="geometry" />
        </mxCell>
        <mxCell id="F9q9TS915zBCrHHgD7F_-17" value="+ img2: varchar(100)" style="text;strokeColor=none;fillColor=none;align=left;verticalAlign=top;spacingLeft=4;spacingRight=4;overflow=hidden;rotatable=0;points=[[0,0.5],[1,0.5]];portConstraint=eastwest;whiteSpace=wrap;html=1;" parent="F9q9TS915zBCrHHgD7F_-1" vertex="1">
          <mxGeometry y="286" width="181" height="26" as="geometry" />
        </mxCell>
        <mxCell id="F9q9TS915zBCrHHgD7F_-16" value="+ img3: varchar(100)" style="text;strokeColor=none;fillColor=none;align=left;verticalAlign=top;spacingLeft=4;spacingRight=4;overflow=hidden;rotatable=0;points=[[0,0.5],[1,0.5]];portConstraint=eastwest;whiteSpace=wrap;html=1;" parent="F9q9TS915zBCrHHgD7F_-1" vertex="1">
          <mxGeometry y="312" width="181" height="26" as="geometry" />
        </mxCell>
        <mxCell id="F9q9TS915zBCrHHgD7F_-15" value="+ img4: varchar(100)" style="text;strokeColor=none;fillColor=none;align=left;verticalAlign=top;spacingLeft=4;spacingRight=4;overflow=hidden;rotatable=0;points=[[0,0.5],[1,0.5]];portConstraint=eastwest;whiteSpace=wrap;html=1;" parent="F9q9TS915zBCrHHgD7F_-1" vertex="1">
          <mxGeometry y="338" width="181" height="26" as="geometry" />
        </mxCell>
        <mxCell id="F9q9TS915zBCrHHgD7F_-9" value="+ created_at: timestamp" style="text;strokeColor=none;fillColor=none;align=left;verticalAlign=top;spacingLeft=4;spacingRight=4;overflow=hidden;rotatable=0;points=[[0,0.5],[1,0.5]];portConstraint=eastwest;whiteSpace=wrap;html=1;" parent="F9q9TS915zBCrHHgD7F_-1" vertex="1">
          <mxGeometry y="364" width="181" height="26" as="geometry" />
        </mxCell>
        <mxCell id="F9q9TS915zBCrHHgD7F_-10" value="+ updated_at_at: timestamp" style="text;strokeColor=none;fillColor=none;align=left;verticalAlign=top;spacingLeft=4;spacingRight=4;overflow=hidden;rotatable=0;points=[[0,0.5],[1,0.5]];portConstraint=eastwest;whiteSpace=wrap;html=1;" parent="F9q9TS915zBCrHHgD7F_-1" vertex="1">
          <mxGeometry y="390" width="181" height="26" as="geometry" />
        </mxCell>
        <mxCell id="F9q9TS915zBCrHHgD7F_-11" value="" style="line;strokeWidth=1;fillColor=none;align=left;verticalAlign=middle;spacingTop=-1;spacingLeft=3;spacingRight=3;rotatable=0;labelPosition=right;points=[];portConstraint=eastwest;strokeColor=inherit;" parent="F9q9TS915zBCrHHgD7F_-1" vertex="1">
          <mxGeometry y="416" width="181" height="8" as="geometry" />
        </mxCell>
        <mxCell id="F9q9TS915zBCrHHgD7F_-12" value="+ CRUD()" style="text;strokeColor=none;fillColor=none;align=left;verticalAlign=top;spacingLeft=4;spacingRight=4;overflow=hidden;rotatable=0;points=[[0,0.5],[1,0.5]];portConstraint=eastwest;whiteSpace=wrap;html=1;" parent="F9q9TS915zBCrHHgD7F_-1" vertex="1">
          <mxGeometry y="424" width="181" height="26" as="geometry" />
        </mxCell>
        <mxCell id="F9q9TS915zBCrHHgD7F_-19" value="cities" style="swimlane;fontStyle=1;align=center;verticalAlign=top;childLayout=stackLayout;horizontal=1;startSize=26;horizontalStack=0;resizeParent=1;resizeParentMax=0;resizeLast=0;collapsible=1;marginBottom=0;whiteSpace=wrap;html=1;" parent="1" vertex="1">
          <mxGeometry x="20" width="181" height="242" as="geometry" />
        </mxCell>
        <mxCell id="F9q9TS915zBCrHHgD7F_-20" value="+ id: bigint(20)" style="text;strokeColor=none;fillColor=none;align=left;verticalAlign=top;spacingLeft=4;spacingRight=4;overflow=hidden;rotatable=0;points=[[0,0.5],[1,0.5]];portConstraint=eastwest;whiteSpace=wrap;html=1;" parent="F9q9TS915zBCrHHgD7F_-19" vertex="1">
          <mxGeometry y="26" width="181" height="26" as="geometry" />
        </mxCell>
        <mxCell id="F9q9TS915zBCrHHgD7F_-21" value="+ province_id: bigint(20)" style="text;strokeColor=none;fillColor=none;align=left;verticalAlign=top;spacingLeft=4;spacingRight=4;overflow=hidden;rotatable=0;points=[[0,0.5],[1,0.5]];portConstraint=eastwest;whiteSpace=wrap;html=1;" parent="F9q9TS915zBCrHHgD7F_-19" vertex="1">
          <mxGeometry y="52" width="181" height="26" as="geometry" />
        </mxCell>
        <mxCell id="F9q9TS915zBCrHHgD7F_-22" value="+ type: varchar(50)" style="text;strokeColor=none;fillColor=none;align=left;verticalAlign=top;spacingLeft=4;spacingRight=4;overflow=hidden;rotatable=0;points=[[0,0.5],[1,0.5]];portConstraint=eastwest;whiteSpace=wrap;html=1;" parent="F9q9TS915zBCrHHgD7F_-19" vertex="1">
          <mxGeometry y="78" width="181" height="26" as="geometry" />
        </mxCell>
        <mxCell id="F9q9TS915zBCrHHgD7F_-23" value="+ city_name: varchar(50)" style="text;strokeColor=none;fillColor=none;align=left;verticalAlign=top;spacingLeft=4;spacingRight=4;overflow=hidden;rotatable=0;points=[[0,0.5],[1,0.5]];portConstraint=eastwest;whiteSpace=wrap;html=1;" parent="F9q9TS915zBCrHHgD7F_-19" vertex="1">
          <mxGeometry y="104" width="181" height="26" as="geometry" />
        </mxCell>
        <mxCell id="F9q9TS915zBCrHHgD7F_-47" value="+ postal_code: varchar(50)" style="text;strokeColor=none;fillColor=none;align=left;verticalAlign=top;spacingLeft=4;spacingRight=4;overflow=hidden;rotatable=0;points=[[0,0.5],[1,0.5]];portConstraint=eastwest;whiteSpace=wrap;html=1;" parent="F9q9TS915zBCrHHgD7F_-19" vertex="1">
          <mxGeometry y="130" width="181" height="26" as="geometry" />
        </mxCell>
        <mxCell id="F9q9TS915zBCrHHgD7F_-24" value="+ created_at: timestamp" style="text;strokeColor=none;fillColor=none;align=left;verticalAlign=top;spacingLeft=4;spacingRight=4;overflow=hidden;rotatable=0;points=[[0,0.5],[1,0.5]];portConstraint=eastwest;whiteSpace=wrap;html=1;" parent="F9q9TS915zBCrHHgD7F_-19" vertex="1">
          <mxGeometry y="156" width="181" height="26" as="geometry" />
        </mxCell>
        <mxCell id="F9q9TS915zBCrHHgD7F_-25" value="+ updated_at_at: timestamp" style="text;strokeColor=none;fillColor=none;align=left;verticalAlign=top;spacingLeft=4;spacingRight=4;overflow=hidden;rotatable=0;points=[[0,0.5],[1,0.5]];portConstraint=eastwest;whiteSpace=wrap;html=1;" parent="F9q9TS915zBCrHHgD7F_-19" vertex="1">
          <mxGeometry y="182" width="181" height="26" as="geometry" />
        </mxCell>
        <mxCell id="F9q9TS915zBCrHHgD7F_-26" value="" style="line;strokeWidth=1;fillColor=none;align=left;verticalAlign=middle;spacingTop=-1;spacingLeft=3;spacingRight=3;rotatable=0;labelPosition=right;points=[];portConstraint=eastwest;strokeColor=inherit;" parent="F9q9TS915zBCrHHgD7F_-19" vertex="1">
          <mxGeometry y="208" width="181" height="8" as="geometry" />
        </mxCell>
        <mxCell id="F9q9TS915zBCrHHgD7F_-27" value="+ Read()" style="text;strokeColor=none;fillColor=none;align=left;verticalAlign=top;spacingLeft=4;spacingRight=4;overflow=hidden;rotatable=0;points=[[0,0.5],[1,0.5]];portConstraint=eastwest;whiteSpace=wrap;html=1;" parent="F9q9TS915zBCrHHgD7F_-19" vertex="1">
          <mxGeometry y="216" width="181" height="26" as="geometry" />
        </mxCell>
        <mxCell id="F9q9TS915zBCrHHgD7F_-28" value="category" style="swimlane;fontStyle=1;align=center;verticalAlign=top;childLayout=stackLayout;horizontal=1;startSize=26;horizontalStack=0;resizeParent=1;resizeParentMax=0;resizeLast=0;collapsible=1;marginBottom=0;whiteSpace=wrap;html=1;" parent="1" vertex="1">
          <mxGeometry x="1400" width="181" height="188" as="geometry" />
        </mxCell>
        <mxCell id="F9q9TS915zBCrHHgD7F_-29" value="+ id: bigint(20)" style="text;strokeColor=none;fillColor=none;align=left;verticalAlign=top;spacingLeft=4;spacingRight=4;overflow=hidden;rotatable=0;points=[[0,0.5],[1,0.5]];portConstraint=eastwest;whiteSpace=wrap;html=1;" parent="F9q9TS915zBCrHHgD7F_-28" vertex="1">
          <mxGeometry y="26" width="181" height="24" as="geometry" />
        </mxCell>
        <mxCell id="F9q9TS915zBCrHHgD7F_-30" value="+ name: varchar(50)" style="text;strokeColor=none;fillColor=none;align=left;verticalAlign=top;spacingLeft=4;spacingRight=4;overflow=hidden;rotatable=0;points=[[0,0.5],[1,0.5]];portConstraint=eastwest;whiteSpace=wrap;html=1;" parent="F9q9TS915zBCrHHgD7F_-28" vertex="1">
          <mxGeometry y="50" width="181" height="26" as="geometry" />
        </mxCell>
        <mxCell id="F9q9TS915zBCrHHgD7F_-31" value="+ slug: varchar(50)" style="text;strokeColor=none;fillColor=none;align=left;verticalAlign=top;spacingLeft=4;spacingRight=4;overflow=hidden;rotatable=0;points=[[0,0.5],[1,0.5]];portConstraint=eastwest;whiteSpace=wrap;html=1;" parent="F9q9TS915zBCrHHgD7F_-28" vertex="1">
          <mxGeometry y="76" width="181" height="26" as="geometry" />
        </mxCell>
        <mxCell id="F9q9TS915zBCrHHgD7F_-33" value="+ created_at: timestamp" style="text;strokeColor=none;fillColor=none;align=left;verticalAlign=top;spacingLeft=4;spacingRight=4;overflow=hidden;rotatable=0;points=[[0,0.5],[1,0.5]];portConstraint=eastwest;whiteSpace=wrap;html=1;" parent="F9q9TS915zBCrHHgD7F_-28" vertex="1">
          <mxGeometry y="102" width="181" height="26" as="geometry" />
        </mxCell>
        <mxCell id="F9q9TS915zBCrHHgD7F_-34" value="+ updated_at_at: timestamp" style="text;strokeColor=none;fillColor=none;align=left;verticalAlign=top;spacingLeft=4;spacingRight=4;overflow=hidden;rotatable=0;points=[[0,0.5],[1,0.5]];portConstraint=eastwest;whiteSpace=wrap;html=1;" parent="F9q9TS915zBCrHHgD7F_-28" vertex="1">
          <mxGeometry y="128" width="181" height="26" as="geometry" />
        </mxCell>
        <mxCell id="F9q9TS915zBCrHHgD7F_-35" value="" style="line;strokeWidth=1;fillColor=none;align=left;verticalAlign=middle;spacingTop=-1;spacingLeft=3;spacingRight=3;rotatable=0;labelPosition=right;points=[];portConstraint=eastwest;strokeColor=inherit;" parent="F9q9TS915zBCrHHgD7F_-28" vertex="1">
          <mxGeometry y="154" width="181" height="8" as="geometry" />
        </mxCell>
        <mxCell id="F9q9TS915zBCrHHgD7F_-36" value="+ CRUD()" style="text;strokeColor=none;fillColor=none;align=left;verticalAlign=top;spacingLeft=4;spacingRight=4;overflow=hidden;rotatable=0;points=[[0,0.5],[1,0.5]];portConstraint=eastwest;whiteSpace=wrap;html=1;" parent="F9q9TS915zBCrHHgD7F_-28" vertex="1">
          <mxGeometry y="162" width="181" height="26" as="geometry" />
        </mxCell>
        <mxCell id="F9q9TS915zBCrHHgD7F_-37" value="brands" style="swimlane;fontStyle=1;align=center;verticalAlign=top;childLayout=stackLayout;horizontal=1;startSize=26;horizontalStack=0;resizeParent=1;resizeParentMax=0;resizeLast=0;collapsible=1;marginBottom=0;whiteSpace=wrap;html=1;" parent="1" vertex="1">
          <mxGeometry x="1400" y="230" width="181" height="190" as="geometry" />
        </mxCell>
        <mxCell id="F9q9TS915zBCrHHgD7F_-38" value="+ id: bigint(20)" style="text;strokeColor=none;fillColor=none;align=left;verticalAlign=top;spacingLeft=4;spacingRight=4;overflow=hidden;rotatable=0;points=[[0,0.5],[1,0.5]];portConstraint=eastwest;whiteSpace=wrap;html=1;" parent="F9q9TS915zBCrHHgD7F_-37" vertex="1">
          <mxGeometry y="26" width="181" height="26" as="geometry" />
        </mxCell>
        <mxCell id="F9q9TS915zBCrHHgD7F_-39" value="+ name: varchar(50)" style="text;strokeColor=none;fillColor=none;align=left;verticalAlign=top;spacingLeft=4;spacingRight=4;overflow=hidden;rotatable=0;points=[[0,0.5],[1,0.5]];portConstraint=eastwest;whiteSpace=wrap;html=1;" parent="F9q9TS915zBCrHHgD7F_-37" vertex="1">
          <mxGeometry y="52" width="181" height="26" as="geometry" />
        </mxCell>
        <mxCell id="F9q9TS915zBCrHHgD7F_-40" value="+ slug: varchar(50)" style="text;strokeColor=none;fillColor=none;align=left;verticalAlign=top;spacingLeft=4;spacingRight=4;overflow=hidden;rotatable=0;points=[[0,0.5],[1,0.5]];portConstraint=eastwest;whiteSpace=wrap;html=1;" parent="F9q9TS915zBCrHHgD7F_-37" vertex="1">
          <mxGeometry y="78" width="181" height="26" as="geometry" />
        </mxCell>
        <mxCell id="F9q9TS915zBCrHHgD7F_-41" value="+ created_at: timestamp" style="text;strokeColor=none;fillColor=none;align=left;verticalAlign=top;spacingLeft=4;spacingRight=4;overflow=hidden;rotatable=0;points=[[0,0.5],[1,0.5]];portConstraint=eastwest;whiteSpace=wrap;html=1;" parent="F9q9TS915zBCrHHgD7F_-37" vertex="1">
          <mxGeometry y="104" width="181" height="26" as="geometry" />
        </mxCell>
        <mxCell id="F9q9TS915zBCrHHgD7F_-42" value="+ updated_at_at: timestamp" style="text;strokeColor=none;fillColor=none;align=left;verticalAlign=top;spacingLeft=4;spacingRight=4;overflow=hidden;rotatable=0;points=[[0,0.5],[1,0.5]];portConstraint=eastwest;whiteSpace=wrap;html=1;" parent="F9q9TS915zBCrHHgD7F_-37" vertex="1">
          <mxGeometry y="130" width="181" height="26" as="geometry" />
        </mxCell>
        <mxCell id="F9q9TS915zBCrHHgD7F_-43" value="" style="line;strokeWidth=1;fillColor=none;align=left;verticalAlign=middle;spacingTop=-1;spacingLeft=3;spacingRight=3;rotatable=0;labelPosition=right;points=[];portConstraint=eastwest;strokeColor=inherit;" parent="F9q9TS915zBCrHHgD7F_-37" vertex="1">
          <mxGeometry y="156" width="181" height="8" as="geometry" />
        </mxCell>
        <mxCell id="F9q9TS915zBCrHHgD7F_-44" value="+ CRUD()" style="text;strokeColor=none;fillColor=none;align=left;verticalAlign=top;spacingLeft=4;spacingRight=4;overflow=hidden;rotatable=0;points=[[0,0.5],[1,0.5]];portConstraint=eastwest;whiteSpace=wrap;html=1;" parent="F9q9TS915zBCrHHgD7F_-37" vertex="1">
          <mxGeometry y="164" width="181" height="26" as="geometry" />
        </mxCell>
        <mxCell id="F9q9TS915zBCrHHgD7F_-48" value="infotips" style="swimlane;fontStyle=1;align=center;verticalAlign=top;childLayout=stackLayout;horizontal=1;startSize=26;horizontalStack=0;resizeParent=1;resizeParentMax=0;resizeLast=0;collapsible=1;marginBottom=0;whiteSpace=wrap;html=1;" parent="1" vertex="1">
          <mxGeometry x="1090" y="827" width="181" height="346" as="geometry" />
        </mxCell>
        <mxCell id="F9q9TS915zBCrHHgD7F_-49" value="+ id: bigint(20)" style="text;strokeColor=none;fillColor=none;align=left;verticalAlign=top;spacingLeft=4;spacingRight=4;overflow=hidden;rotatable=0;points=[[0,0.5],[1,0.5]];portConstraint=eastwest;whiteSpace=wrap;html=1;" parent="F9q9TS915zBCrHHgD7F_-48" vertex="1">
          <mxGeometry y="26" width="181" height="26" as="geometry" />
        </mxCell>
        <mxCell id="F9q9TS915zBCrHHgD7F_-50" value="+ title: varchar(100)" style="text;strokeColor=none;fillColor=none;align=left;verticalAlign=top;spacingLeft=4;spacingRight=4;overflow=hidden;rotatable=0;points=[[0,0.5],[1,0.5]];portConstraint=eastwest;whiteSpace=wrap;html=1;" parent="F9q9TS915zBCrHHgD7F_-48" vertex="1">
          <mxGeometry y="52" width="181" height="26" as="geometry" />
        </mxCell>
        <mxCell id="F9q9TS915zBCrHHgD7F_-51" value="+ slug: varchar(100)" style="text;strokeColor=none;fillColor=none;align=left;verticalAlign=top;spacingLeft=4;spacingRight=4;overflow=hidden;rotatable=0;points=[[0,0.5],[1,0.5]];portConstraint=eastwest;whiteSpace=wrap;html=1;" parent="F9q9TS915zBCrHHgD7F_-48" vertex="1">
          <mxGeometry y="78" width="181" height="26" as="geometry" />
        </mxCell>
        <mxCell id="F9q9TS915zBCrHHgD7F_-52" value="+ deskripsi: longtext" style="text;strokeColor=none;fillColor=none;align=left;verticalAlign=top;spacingLeft=4;spacingRight=4;overflow=hidden;rotatable=0;points=[[0,0.5],[1,0.5]];portConstraint=eastwest;whiteSpace=wrap;html=1;" parent="F9q9TS915zBCrHHgD7F_-48" vertex="1">
          <mxGeometry y="104" width="181" height="26" as="geometry" />
        </mxCell>
        <mxCell id="F9q9TS915zBCrHHgD7F_-53" value="+ thumbnail: varchar(100)" style="text;strokeColor=none;fillColor=none;align=left;verticalAlign=top;spacingLeft=4;spacingRight=4;overflow=hidden;rotatable=0;points=[[0,0.5],[1,0.5]];portConstraint=eastwest;whiteSpace=wrap;html=1;" parent="F9q9TS915zBCrHHgD7F_-48" vertex="1">
          <mxGeometry y="130" width="181" height="26" as="geometry" />
        </mxCell>
        <mxCell id="F9q9TS915zBCrHHgD7F_-61" value="+ files1: varchar(100)" style="text;strokeColor=none;fillColor=none;align=left;verticalAlign=top;spacingLeft=4;spacingRight=4;overflow=hidden;rotatable=0;points=[[0,0.5],[1,0.5]];portConstraint=eastwest;whiteSpace=wrap;html=1;" parent="F9q9TS915zBCrHHgD7F_-48" vertex="1">
          <mxGeometry y="156" width="181" height="26" as="geometry" />
        </mxCell>
        <mxCell id="F9q9TS915zBCrHHgD7F_-60" value="+ files2: varchar(100)" style="text;strokeColor=none;fillColor=none;align=left;verticalAlign=top;spacingLeft=4;spacingRight=4;overflow=hidden;rotatable=0;points=[[0,0.5],[1,0.5]];portConstraint=eastwest;whiteSpace=wrap;html=1;" parent="F9q9TS915zBCrHHgD7F_-48" vertex="1">
          <mxGeometry y="182" width="181" height="26" as="geometry" />
        </mxCell>
        <mxCell id="F9q9TS915zBCrHHgD7F_-59" value="+ files3: varchar(100)" style="text;strokeColor=none;fillColor=none;align=left;verticalAlign=top;spacingLeft=4;spacingRight=4;overflow=hidden;rotatable=0;points=[[0,0.5],[1,0.5]];portConstraint=eastwest;whiteSpace=wrap;html=1;" parent="F9q9TS915zBCrHHgD7F_-48" vertex="1">
          <mxGeometry y="208" width="181" height="26" as="geometry" />
        </mxCell>
        <mxCell id="F9q9TS915zBCrHHgD7F_-58" value="+ files4: varchar(100)" style="text;strokeColor=none;fillColor=none;align=left;verticalAlign=top;spacingLeft=4;spacingRight=4;overflow=hidden;rotatable=0;points=[[0,0.5],[1,0.5]];portConstraint=eastwest;whiteSpace=wrap;html=1;" parent="F9q9TS915zBCrHHgD7F_-48" vertex="1">
          <mxGeometry y="234" width="181" height="26" as="geometry" />
        </mxCell>
        <mxCell id="F9q9TS915zBCrHHgD7F_-54" value="+ created_at: timestamp" style="text;strokeColor=none;fillColor=none;align=left;verticalAlign=top;spacingLeft=4;spacingRight=4;overflow=hidden;rotatable=0;points=[[0,0.5],[1,0.5]];portConstraint=eastwest;whiteSpace=wrap;html=1;" parent="F9q9TS915zBCrHHgD7F_-48" vertex="1">
          <mxGeometry y="260" width="181" height="26" as="geometry" />
        </mxCell>
        <mxCell id="F9q9TS915zBCrHHgD7F_-55" value="+ updated_at_at: timestamp" style="text;strokeColor=none;fillColor=none;align=left;verticalAlign=top;spacingLeft=4;spacingRight=4;overflow=hidden;rotatable=0;points=[[0,0.5],[1,0.5]];portConstraint=eastwest;whiteSpace=wrap;html=1;" parent="F9q9TS915zBCrHHgD7F_-48" vertex="1">
          <mxGeometry y="286" width="181" height="26" as="geometry" />
        </mxCell>
        <mxCell id="F9q9TS915zBCrHHgD7F_-56" value="" style="line;strokeWidth=1;fillColor=none;align=left;verticalAlign=middle;spacingTop=-1;spacingLeft=3;spacingRight=3;rotatable=0;labelPosition=right;points=[];portConstraint=eastwest;strokeColor=inherit;" parent="F9q9TS915zBCrHHgD7F_-48" vertex="1">
          <mxGeometry y="312" width="181" height="8" as="geometry" />
        </mxCell>
        <mxCell id="F9q9TS915zBCrHHgD7F_-57" value="+ CRUD()" style="text;strokeColor=none;fillColor=none;align=left;verticalAlign=top;spacingLeft=4;spacingRight=4;overflow=hidden;rotatable=0;points=[[0,0.5],[1,0.5]];portConstraint=eastwest;whiteSpace=wrap;html=1;" parent="F9q9TS915zBCrHHgD7F_-48" vertex="1">
          <mxGeometry y="320" width="181" height="26" as="geometry" />
        </mxCell>
        <mxCell id="F9q9TS915zBCrHHgD7F_-62" value="transaksis" style="swimlane;fontStyle=1;align=center;verticalAlign=top;childLayout=stackLayout;horizontal=1;startSize=26;horizontalStack=0;resizeParent=1;resizeParentMax=0;resizeLast=0;collapsible=1;marginBottom=0;whiteSpace=wrap;html=1;" parent="1" vertex="1">
          <mxGeometry x="580" y="300" width="181" height="450" as="geometry" />
        </mxCell>
        <mxCell id="F9q9TS915zBCrHHgD7F_-63" value="+ id: bigint(20)" style="text;strokeColor=none;fillColor=none;align=left;verticalAlign=top;spacingLeft=4;spacingRight=4;overflow=hidden;rotatable=0;points=[[0,0.5],[1,0.5]];portConstraint=eastwest;whiteSpace=wrap;html=1;" parent="F9q9TS915zBCrHHgD7F_-62" vertex="1">
          <mxGeometry y="26" width="181" height="26" as="geometry" />
        </mxCell>
        <mxCell id="F9q9TS915zBCrHHgD7F_-64" value="+ user_id: bigint(20)" style="text;strokeColor=none;fillColor=none;align=left;verticalAlign=top;spacingLeft=4;spacingRight=4;overflow=hidden;rotatable=0;points=[[0,0.5],[1,0.5]];portConstraint=eastwest;whiteSpace=wrap;html=1;" parent="F9q9TS915zBCrHHgD7F_-62" vertex="1">
          <mxGeometry y="52" width="181" height="26" as="geometry" />
        </mxCell>
        <mxCell id="F9q9TS915zBCrHHgD7F_-65" value="+ faktur: varchar(100)" style="text;strokeColor=none;fillColor=none;align=left;verticalAlign=top;spacingLeft=4;spacingRight=4;overflow=hidden;rotatable=0;points=[[0,0.5],[1,0.5]];portConstraint=eastwest;whiteSpace=wrap;html=1;" parent="F9q9TS915zBCrHHgD7F_-62" vertex="1">
          <mxGeometry y="78" width="181" height="26" as="geometry" />
        </mxCell>
        <mxCell id="F9q9TS915zBCrHHgD7F_-70" value="+ nama: varchar(50)" style="text;strokeColor=none;fillColor=none;align=left;verticalAlign=top;spacingLeft=4;spacingRight=4;overflow=hidden;rotatable=0;points=[[0,0.5],[1,0.5]];portConstraint=eastwest;whiteSpace=wrap;html=1;" parent="F9q9TS915zBCrHHgD7F_-62" vertex="1">
          <mxGeometry y="104" width="181" height="26" as="geometry" />
        </mxCell>
        <mxCell id="F9q9TS915zBCrHHgD7F_-75" value="+ no_ho: varchar(20)" style="text;strokeColor=none;fillColor=none;align=left;verticalAlign=top;spacingLeft=4;spacingRight=4;overflow=hidden;rotatable=0;points=[[0,0.5],[1,0.5]];portConstraint=eastwest;whiteSpace=wrap;html=1;" parent="F9q9TS915zBCrHHgD7F_-62" vertex="1">
          <mxGeometry y="130" width="181" height="26" as="geometry" />
        </mxCell>
        <mxCell id="F9q9TS915zBCrHHgD7F_-74" value="+ berat: int(11)" style="text;strokeColor=none;fillColor=none;align=left;verticalAlign=top;spacingLeft=4;spacingRight=4;overflow=hidden;rotatable=0;points=[[0,0.5],[1,0.5]];portConstraint=eastwest;whiteSpace=wrap;html=1;" parent="F9q9TS915zBCrHHgD7F_-62" vertex="1">
          <mxGeometry y="156" width="181" height="26" as="geometry" />
        </mxCell>
        <mxCell id="F9q9TS915zBCrHHgD7F_-73" value="+ alamat_lengkap: text" style="text;strokeColor=none;fillColor=none;align=left;verticalAlign=top;spacingLeft=4;spacingRight=4;overflow=hidden;rotatable=0;points=[[0,0.5],[1,0.5]];portConstraint=eastwest;whiteSpace=wrap;html=1;" parent="F9q9TS915zBCrHHgD7F_-62" vertex="1">
          <mxGeometry y="182" width="181" height="26" as="geometry" />
        </mxCell>
        <mxCell id="F9q9TS915zBCrHHgD7F_-72" value="+ status: varchar(20)" style="text;strokeColor=none;fillColor=none;align=left;verticalAlign=top;spacingLeft=4;spacingRight=4;overflow=hidden;rotatable=0;points=[[0,0.5],[1,0.5]];portConstraint=eastwest;whiteSpace=wrap;html=1;" parent="F9q9TS915zBCrHHgD7F_-62" vertex="1">
          <mxGeometry y="208" width="181" height="26" as="geometry" />
        </mxCell>
        <mxCell id="F9q9TS915zBCrHHgD7F_-71" value="+ kurir: varchar(5)" style="text;strokeColor=none;fillColor=none;align=left;verticalAlign=top;spacingLeft=4;spacingRight=4;overflow=hidden;rotatable=0;points=[[0,0.5],[1,0.5]];portConstraint=eastwest;whiteSpace=wrap;html=1;" parent="F9q9TS915zBCrHHgD7F_-62" vertex="1">
          <mxGeometry y="234" width="181" height="26" as="geometry" />
        </mxCell>
        <mxCell id="F9q9TS915zBCrHHgD7F_-76" value="+ total: bigint(20)" style="text;strokeColor=none;fillColor=none;align=left;verticalAlign=top;spacingLeft=4;spacingRight=4;overflow=hidden;rotatable=0;points=[[0,0.5],[1,0.5]];portConstraint=eastwest;whiteSpace=wrap;html=1;" parent="F9q9TS915zBCrHHgD7F_-62" vertex="1">
          <mxGeometry y="260" width="181" height="26" as="geometry" />
        </mxCell>
        <mxCell id="F9q9TS915zBCrHHgD7F_-66" value="+ created_at: timestamp" style="text;strokeColor=none;fillColor=none;align=left;verticalAlign=top;spacingLeft=4;spacingRight=4;overflow=hidden;rotatable=0;points=[[0,0.5],[1,0.5]];portConstraint=eastwest;whiteSpace=wrap;html=1;" parent="F9q9TS915zBCrHHgD7F_-62" vertex="1">
          <mxGeometry y="286" width="181" height="26" as="geometry" />
        </mxCell>
        <mxCell id="F9q9TS915zBCrHHgD7F_-67" value="+ updated_at_at: timestamp" style="text;strokeColor=none;fillColor=none;align=left;verticalAlign=top;spacingLeft=4;spacingRight=4;overflow=hidden;rotatable=0;points=[[0,0.5],[1,0.5]];portConstraint=eastwest;whiteSpace=wrap;html=1;" parent="F9q9TS915zBCrHHgD7F_-62" vertex="1">
          <mxGeometry y="312" width="181" height="26" as="geometry" />
        </mxCell>
        <mxCell id="F9q9TS915zBCrHHgD7F_-68" value="" style="line;strokeWidth=1;fillColor=none;align=left;verticalAlign=middle;spacingTop=-1;spacingLeft=3;spacingRight=3;rotatable=0;labelPosition=right;points=[];portConstraint=eastwest;strokeColor=inherit;" parent="F9q9TS915zBCrHHgD7F_-62" vertex="1">
          <mxGeometry y="338" width="181" height="8" as="geometry" />
        </mxCell>
        <mxCell id="F9q9TS915zBCrHHgD7F_-69" value="+ Create()" style="text;strokeColor=none;fillColor=none;align=left;verticalAlign=top;spacingLeft=4;spacingRight=4;overflow=hidden;rotatable=0;points=[[0,0.5],[1,0.5]];portConstraint=eastwest;whiteSpace=wrap;html=1;" parent="F9q9TS915zBCrHHgD7F_-62" vertex="1">
          <mxGeometry y="346" width="181" height="26" as="geometry" />
        </mxCell>
        <mxCell id="JjWtq-WbktGqVJIk80bh-7" value="+ Read()" style="text;strokeColor=none;fillColor=none;align=left;verticalAlign=top;spacingLeft=4;spacingRight=4;overflow=hidden;rotatable=0;points=[[0,0.5],[1,0.5]];portConstraint=eastwest;whiteSpace=wrap;html=1;" parent="F9q9TS915zBCrHHgD7F_-62" vertex="1">
          <mxGeometry y="372" width="181" height="26" as="geometry" />
        </mxCell>
        <mxCell id="JjWtq-WbktGqVJIk80bh-6" value="+ Update()" style="text;strokeColor=none;fillColor=none;align=left;verticalAlign=top;spacingLeft=4;spacingRight=4;overflow=hidden;rotatable=0;points=[[0,0.5],[1,0.5]];portConstraint=eastwest;whiteSpace=wrap;html=1;" parent="F9q9TS915zBCrHHgD7F_-62" vertex="1">
          <mxGeometry y="398" width="181" height="26" as="geometry" />
        </mxCell>
        <mxCell id="JjWtq-WbktGqVJIk80bh-5" value="+ invoice()" style="text;strokeColor=none;fillColor=none;align=left;verticalAlign=top;spacingLeft=4;spacingRight=4;overflow=hidden;rotatable=0;points=[[0,0.5],[1,0.5]];portConstraint=eastwest;whiteSpace=wrap;html=1;" parent="F9q9TS915zBCrHHgD7F_-62" vertex="1">
          <mxGeometry y="424" width="181" height="26" as="geometry" />
        </mxCell>
        <mxCell id="F9q9TS915zBCrHHgD7F_-77" value="detail_transaksis" style="swimlane;fontStyle=1;align=center;verticalAlign=top;childLayout=stackLayout;horizontal=1;startSize=26;horizontalStack=0;resizeParent=1;resizeParentMax=0;resizeLast=0;collapsible=1;marginBottom=0;whiteSpace=wrap;html=1;" parent="1" vertex="1">
          <mxGeometry x="830" y="300" width="181" height="276" as="geometry" />
        </mxCell>
        <mxCell id="F9q9TS915zBCrHHgD7F_-78" value="+ id: bigint(20)" style="text;strokeColor=none;fillColor=none;align=left;verticalAlign=top;spacingLeft=4;spacingRight=4;overflow=hidden;rotatable=0;points=[[0,0.5],[1,0.5]];portConstraint=eastwest;whiteSpace=wrap;html=1;" parent="F9q9TS915zBCrHHgD7F_-77" vertex="1">
          <mxGeometry y="26" width="181" height="26" as="geometry" />
        </mxCell>
        <mxCell id="F9q9TS915zBCrHHgD7F_-79" value="+ transaksi: bigint(20)" style="text;strokeColor=none;fillColor=none;align=left;verticalAlign=top;spacingLeft=4;spacingRight=4;overflow=hidden;rotatable=0;points=[[0,0.5],[1,0.5]];portConstraint=eastwest;whiteSpace=wrap;html=1;" parent="F9q9TS915zBCrHHgD7F_-77" vertex="1">
          <mxGeometry y="52" width="181" height="26" as="geometry" />
        </mxCell>
        <mxCell id="F9q9TS915zBCrHHgD7F_-81" value="+ name: varchar(50)" style="text;strokeColor=none;fillColor=none;align=left;verticalAlign=top;spacingLeft=4;spacingRight=4;overflow=hidden;rotatable=0;points=[[0,0.5],[1,0.5]];portConstraint=eastwest;whiteSpace=wrap;html=1;" parent="F9q9TS915zBCrHHgD7F_-77" vertex="1">
          <mxGeometry y="78" width="181" height="26" as="geometry" />
        </mxCell>
        <mxCell id="F9q9TS915zBCrHHgD7F_-82" value="+ price: bigint(20)" style="text;strokeColor=none;fillColor=none;align=left;verticalAlign=top;spacingLeft=4;spacingRight=4;overflow=hidden;rotatable=0;points=[[0,0.5],[1,0.5]];portConstraint=eastwest;whiteSpace=wrap;html=1;" parent="F9q9TS915zBCrHHgD7F_-77" vertex="1">
          <mxGeometry y="104" width="181" height="26" as="geometry" />
        </mxCell>
        <mxCell id="F9q9TS915zBCrHHgD7F_-87" value="+ jumlah: int(11)" style="text;strokeColor=none;fillColor=none;align=left;verticalAlign=top;spacingLeft=4;spacingRight=4;overflow=hidden;rotatable=0;points=[[0,0.5],[1,0.5]];portConstraint=eastwest;whiteSpace=wrap;html=1;" parent="F9q9TS915zBCrHHgD7F_-77" vertex="1">
          <mxGeometry y="130" width="181" height="26" as="geometry" />
        </mxCell>
        <mxCell id="F9q9TS915zBCrHHgD7F_-83" value="+ created_at: timestamp" style="text;strokeColor=none;fillColor=none;align=left;verticalAlign=top;spacingLeft=4;spacingRight=4;overflow=hidden;rotatable=0;points=[[0,0.5],[1,0.5]];portConstraint=eastwest;whiteSpace=wrap;html=1;" parent="F9q9TS915zBCrHHgD7F_-77" vertex="1">
          <mxGeometry y="156" width="181" height="26" as="geometry" />
        </mxCell>
        <mxCell id="F9q9TS915zBCrHHgD7F_-84" value="+ updated_at_at: timestamp" style="text;strokeColor=none;fillColor=none;align=left;verticalAlign=top;spacingLeft=4;spacingRight=4;overflow=hidden;rotatable=0;points=[[0,0.5],[1,0.5]];portConstraint=eastwest;whiteSpace=wrap;html=1;" parent="F9q9TS915zBCrHHgD7F_-77" vertex="1">
          <mxGeometry y="182" width="181" height="26" as="geometry" />
        </mxCell>
        <mxCell id="F9q9TS915zBCrHHgD7F_-85" value="" style="line;strokeWidth=1;fillColor=none;align=left;verticalAlign=middle;spacingTop=-1;spacingLeft=3;spacingRight=3;rotatable=0;labelPosition=right;points=[];portConstraint=eastwest;strokeColor=inherit;" parent="F9q9TS915zBCrHHgD7F_-77" vertex="1">
          <mxGeometry y="208" width="181" height="8" as="geometry" />
        </mxCell>
        <mxCell id="JjWtq-WbktGqVJIk80bh-12" style="line;strokeWidth=1;fillColor=none;align=left;verticalAlign=middle;spacingTop=-1;spacingLeft=3;spacingRight=3;rotatable=0;labelPosition=right;points=[];portConstraint=eastwest;strokeColor=inherit;" parent="F9q9TS915zBCrHHgD7F_-77" vertex="1">
          <mxGeometry y="216" width="181" height="8" as="geometry" />
        </mxCell>
        <mxCell id="JjWtq-WbktGqVJIk80bh-14" value="+ Read()" style="text;strokeColor=none;fillColor=none;align=left;verticalAlign=top;spacingLeft=4;spacingRight=4;overflow=hidden;rotatable=0;points=[[0,0.5],[1,0.5]];portConstraint=eastwest;whiteSpace=wrap;html=1;" parent="F9q9TS915zBCrHHgD7F_-77" vertex="1">
          <mxGeometry y="224" width="181" height="26" as="geometry" />
        </mxCell>
        <mxCell id="JjWtq-WbktGqVJIk80bh-15" value="+ Create()" style="text;strokeColor=none;fillColor=none;align=left;verticalAlign=top;spacingLeft=4;spacingRight=4;overflow=hidden;rotatable=0;points=[[0,0.5],[1,0.5]];portConstraint=eastwest;whiteSpace=wrap;html=1;" parent="F9q9TS915zBCrHHgD7F_-77" vertex="1">
          <mxGeometry y="250" width="181" height="26" as="geometry" />
        </mxCell>
        <mxCell id="F9q9TS915zBCrHHgD7F_-88" value="provinces" style="swimlane;fontStyle=1;align=center;verticalAlign=top;childLayout=stackLayout;horizontal=1;startSize=26;horizontalStack=0;resizeParent=1;resizeParentMax=0;resizeLast=0;collapsible=1;marginBottom=0;whiteSpace=wrap;html=1;" parent="1" vertex="1">
          <mxGeometry x="20" y="286" width="181" height="164" as="geometry" />
        </mxCell>
        <mxCell id="F9q9TS915zBCrHHgD7F_-89" value="+ id: bigint(20)" style="text;strokeColor=none;fillColor=none;align=left;verticalAlign=top;spacingLeft=4;spacingRight=4;overflow=hidden;rotatable=0;points=[[0,0.5],[1,0.5]];portConstraint=eastwest;whiteSpace=wrap;html=1;" parent="F9q9TS915zBCrHHgD7F_-88" vertex="1">
          <mxGeometry y="26" width="181" height="26" as="geometry" />
        </mxCell>
        <mxCell id="F9q9TS915zBCrHHgD7F_-92" value="+ name: varchar(50)" style="text;strokeColor=none;fillColor=none;align=left;verticalAlign=top;spacingLeft=4;spacingRight=4;overflow=hidden;rotatable=0;points=[[0,0.5],[1,0.5]];portConstraint=eastwest;whiteSpace=wrap;html=1;" parent="F9q9TS915zBCrHHgD7F_-88" vertex="1">
          <mxGeometry y="52" width="181" height="26" as="geometry" />
        </mxCell>
        <mxCell id="F9q9TS915zBCrHHgD7F_-94" value="+ created_at: timestamp" style="text;strokeColor=none;fillColor=none;align=left;verticalAlign=top;spacingLeft=4;spacingRight=4;overflow=hidden;rotatable=0;points=[[0,0.5],[1,0.5]];portConstraint=eastwest;whiteSpace=wrap;html=1;" parent="F9q9TS915zBCrHHgD7F_-88" vertex="1">
          <mxGeometry y="78" width="181" height="26" as="geometry" />
        </mxCell>
        <mxCell id="F9q9TS915zBCrHHgD7F_-95" value="+ updated_at_at: timestamp" style="text;strokeColor=none;fillColor=none;align=left;verticalAlign=top;spacingLeft=4;spacingRight=4;overflow=hidden;rotatable=0;points=[[0,0.5],[1,0.5]];portConstraint=eastwest;whiteSpace=wrap;html=1;" parent="F9q9TS915zBCrHHgD7F_-88" vertex="1">
          <mxGeometry y="104" width="181" height="26" as="geometry" />
        </mxCell>
        <mxCell id="F9q9TS915zBCrHHgD7F_-96" value="" style="line;strokeWidth=1;fillColor=none;align=left;verticalAlign=middle;spacingTop=-1;spacingLeft=3;spacingRight=3;rotatable=0;labelPosition=right;points=[];portConstraint=eastwest;strokeColor=inherit;" parent="F9q9TS915zBCrHHgD7F_-88" vertex="1">
          <mxGeometry y="130" width="181" height="8" as="geometry" />
        </mxCell>
        <mxCell id="F9q9TS915zBCrHHgD7F_-97" value="+ Read()" style="text;strokeColor=none;fillColor=none;align=left;verticalAlign=top;spacingLeft=4;spacingRight=4;overflow=hidden;rotatable=0;points=[[0,0.5],[1,0.5]];portConstraint=eastwest;whiteSpace=wrap;html=1;" parent="F9q9TS915zBCrHHgD7F_-88" vertex="1">
          <mxGeometry y="138" width="181" height="26" as="geometry" />
        </mxCell>
        <mxCell id="F9q9TS915zBCrHHgD7F_-98" value="permissions" style="swimlane;fontStyle=1;align=center;verticalAlign=top;childLayout=stackLayout;horizontal=1;startSize=26;horizontalStack=0;resizeParent=1;resizeParentMax=0;resizeLast=0;collapsible=1;marginBottom=0;whiteSpace=wrap;html=1;" parent="1" vertex="1">
          <mxGeometry y="827" width="181" height="190" as="geometry" />
        </mxCell>
        <mxCell id="F9q9TS915zBCrHHgD7F_-99" value="+ id: bigint(20)" style="text;strokeColor=none;fillColor=none;align=left;verticalAlign=top;spacingLeft=4;spacingRight=4;overflow=hidden;rotatable=0;points=[[0,0.5],[1,0.5]];portConstraint=eastwest;whiteSpace=wrap;html=1;" parent="F9q9TS915zBCrHHgD7F_-98" vertex="1">
          <mxGeometry y="26" width="181" height="26" as="geometry" />
        </mxCell>
        <mxCell id="F9q9TS915zBCrHHgD7F_-100" value="+ name: varchar(50)" style="text;strokeColor=none;fillColor=none;align=left;verticalAlign=top;spacingLeft=4;spacingRight=4;overflow=hidden;rotatable=0;points=[[0,0.5],[1,0.5]];portConstraint=eastwest;whiteSpace=wrap;html=1;" parent="F9q9TS915zBCrHHgD7F_-98" vertex="1">
          <mxGeometry y="52" width="181" height="26" as="geometry" />
        </mxCell>
        <mxCell id="F9q9TS915zBCrHHgD7F_-105" value="+ guard_name: varchar(50)" style="text;strokeColor=none;fillColor=none;align=left;verticalAlign=top;spacingLeft=4;spacingRight=4;overflow=hidden;rotatable=0;points=[[0,0.5],[1,0.5]];portConstraint=eastwest;whiteSpace=wrap;html=1;" parent="F9q9TS915zBCrHHgD7F_-98" vertex="1">
          <mxGeometry y="78" width="181" height="26" as="geometry" />
        </mxCell>
        <mxCell id="F9q9TS915zBCrHHgD7F_-101" value="+ created_at: timestamp" style="text;strokeColor=none;fillColor=none;align=left;verticalAlign=top;spacingLeft=4;spacingRight=4;overflow=hidden;rotatable=0;points=[[0,0.5],[1,0.5]];portConstraint=eastwest;whiteSpace=wrap;html=1;" parent="F9q9TS915zBCrHHgD7F_-98" vertex="1">
          <mxGeometry y="104" width="181" height="26" as="geometry" />
        </mxCell>
        <mxCell id="F9q9TS915zBCrHHgD7F_-102" value="+ updated_at_at: timestamp" style="text;strokeColor=none;fillColor=none;align=left;verticalAlign=top;spacingLeft=4;spacingRight=4;overflow=hidden;rotatable=0;points=[[0,0.5],[1,0.5]];portConstraint=eastwest;whiteSpace=wrap;html=1;" parent="F9q9TS915zBCrHHgD7F_-98" vertex="1">
          <mxGeometry y="130" width="181" height="26" as="geometry" />
        </mxCell>
        <mxCell id="F9q9TS915zBCrHHgD7F_-103" value="" style="line;strokeWidth=1;fillColor=none;align=left;verticalAlign=middle;spacingTop=-1;spacingLeft=3;spacingRight=3;rotatable=0;labelPosition=right;points=[];portConstraint=eastwest;strokeColor=inherit;" parent="F9q9TS915zBCrHHgD7F_-98" vertex="1">
          <mxGeometry y="156" width="181" height="8" as="geometry" />
        </mxCell>
        <mxCell id="F9q9TS915zBCrHHgD7F_-104" value="+ CRUD()" style="text;strokeColor=none;fillColor=none;align=left;verticalAlign=top;spacingLeft=4;spacingRight=4;overflow=hidden;rotatable=0;points=[[0,0.5],[1,0.5]];portConstraint=eastwest;whiteSpace=wrap;html=1;" parent="F9q9TS915zBCrHHgD7F_-98" vertex="1">
          <mxGeometry y="164" width="181" height="26" as="geometry" />
        </mxCell>
        <mxCell id="F9q9TS915zBCrHHgD7F_-106" value="role_has_permissions" style="swimlane;fontStyle=1;align=center;verticalAlign=top;childLayout=stackLayout;horizontal=1;startSize=26;horizontalStack=0;resizeParent=1;resizeParentMax=0;resizeLast=0;collapsible=1;marginBottom=0;whiteSpace=wrap;html=1;" parent="1" vertex="1">
          <mxGeometry x="220" y="827" width="181" height="112" as="geometry" />
        </mxCell>
        <mxCell id="F9q9TS915zBCrHHgD7F_-111" value="+ permissions_id: bigint(20)" style="text;strokeColor=none;fillColor=none;align=left;verticalAlign=top;spacingLeft=4;spacingRight=4;overflow=hidden;rotatable=0;points=[[0,0.5],[1,0.5]];portConstraint=eastwest;whiteSpace=wrap;html=1;" parent="F9q9TS915zBCrHHgD7F_-106" vertex="1">
          <mxGeometry y="26" width="181" height="26" as="geometry" />
        </mxCell>
        <mxCell id="F9q9TS915zBCrHHgD7F_-123" value="+ role_id: bigint(20)" style="text;strokeColor=none;fillColor=none;align=left;verticalAlign=top;spacingLeft=4;spacingRight=4;overflow=hidden;rotatable=0;points=[[0,0.5],[1,0.5]];portConstraint=eastwest;whiteSpace=wrap;html=1;" parent="F9q9TS915zBCrHHgD7F_-106" vertex="1">
          <mxGeometry y="52" width="181" height="26" as="geometry" />
        </mxCell>
        <mxCell id="F9q9TS915zBCrHHgD7F_-112" value="" style="line;strokeWidth=1;fillColor=none;align=left;verticalAlign=middle;spacingTop=-1;spacingLeft=3;spacingRight=3;rotatable=0;labelPosition=right;points=[];portConstraint=eastwest;strokeColor=inherit;" parent="F9q9TS915zBCrHHgD7F_-106" vertex="1">
          <mxGeometry y="78" width="181" height="8" as="geometry" />
        </mxCell>
        <mxCell id="F9q9TS915zBCrHHgD7F_-113" value="+ assignPermissions()" style="text;strokeColor=none;fillColor=none;align=left;verticalAlign=top;spacingLeft=4;spacingRight=4;overflow=hidden;rotatable=0;points=[[0,0.5],[1,0.5]];portConstraint=eastwest;whiteSpace=wrap;html=1;" parent="F9q9TS915zBCrHHgD7F_-106" vertex="1">
          <mxGeometry y="86" width="181" height="26" as="geometry" />
        </mxCell>
        <mxCell id="F9q9TS915zBCrHHgD7F_-114" value="roles" style="swimlane;fontStyle=1;align=center;verticalAlign=top;childLayout=stackLayout;horizontal=1;startSize=26;horizontalStack=0;resizeParent=1;resizeParentMax=0;resizeLast=0;collapsible=1;marginBottom=0;whiteSpace=wrap;html=1;" parent="1" vertex="1">
          <mxGeometry x="443" y="827" width="181" height="190" as="geometry" />
        </mxCell>
        <mxCell id="F9q9TS915zBCrHHgD7F_-115" value="+ id: bigint(20)" style="text;strokeColor=none;fillColor=none;align=left;verticalAlign=top;spacingLeft=4;spacingRight=4;overflow=hidden;rotatable=0;points=[[0,0.5],[1,0.5]];portConstraint=eastwest;whiteSpace=wrap;html=1;" parent="F9q9TS915zBCrHHgD7F_-114" vertex="1">
          <mxGeometry y="26" width="181" height="26" as="geometry" />
        </mxCell>
        <mxCell id="F9q9TS915zBCrHHgD7F_-116" value="+ name: varchar(50)" style="text;strokeColor=none;fillColor=none;align=left;verticalAlign=top;spacingLeft=4;spacingRight=4;overflow=hidden;rotatable=0;points=[[0,0.5],[1,0.5]];portConstraint=eastwest;whiteSpace=wrap;html=1;" parent="F9q9TS915zBCrHHgD7F_-114" vertex="1">
          <mxGeometry y="52" width="181" height="26" as="geometry" />
        </mxCell>
        <mxCell id="F9q9TS915zBCrHHgD7F_-117" value="+ guard_name: varchar(50)" style="text;strokeColor=none;fillColor=none;align=left;verticalAlign=top;spacingLeft=4;spacingRight=4;overflow=hidden;rotatable=0;points=[[0,0.5],[1,0.5]];portConstraint=eastwest;whiteSpace=wrap;html=1;" parent="F9q9TS915zBCrHHgD7F_-114" vertex="1">
          <mxGeometry y="78" width="181" height="26" as="geometry" />
        </mxCell>
        <mxCell id="F9q9TS915zBCrHHgD7F_-118" value="+ created_at: timestamp" style="text;strokeColor=none;fillColor=none;align=left;verticalAlign=top;spacingLeft=4;spacingRight=4;overflow=hidden;rotatable=0;points=[[0,0.5],[1,0.5]];portConstraint=eastwest;whiteSpace=wrap;html=1;" parent="F9q9TS915zBCrHHgD7F_-114" vertex="1">
          <mxGeometry y="104" width="181" height="26" as="geometry" />
        </mxCell>
        <mxCell id="F9q9TS915zBCrHHgD7F_-119" value="+ updated_at_at: timestamp" style="text;strokeColor=none;fillColor=none;align=left;verticalAlign=top;spacingLeft=4;spacingRight=4;overflow=hidden;rotatable=0;points=[[0,0.5],[1,0.5]];portConstraint=eastwest;whiteSpace=wrap;html=1;" parent="F9q9TS915zBCrHHgD7F_-114" vertex="1">
          <mxGeometry y="130" width="181" height="26" as="geometry" />
        </mxCell>
        <mxCell id="F9q9TS915zBCrHHgD7F_-120" value="" style="line;strokeWidth=1;fillColor=none;align=left;verticalAlign=middle;spacingTop=-1;spacingLeft=3;spacingRight=3;rotatable=0;labelPosition=right;points=[];portConstraint=eastwest;strokeColor=inherit;" parent="F9q9TS915zBCrHHgD7F_-114" vertex="1">
          <mxGeometry y="156" width="181" height="8" as="geometry" />
        </mxCell>
        <mxCell id="F9q9TS915zBCrHHgD7F_-121" value="+ CRUD()" style="text;strokeColor=none;fillColor=none;align=left;verticalAlign=top;spacingLeft=4;spacingRight=4;overflow=hidden;rotatable=0;points=[[0,0.5],[1,0.5]];portConstraint=eastwest;whiteSpace=wrap;html=1;" parent="F9q9TS915zBCrHHgD7F_-114" vertex="1">
          <mxGeometry y="164" width="181" height="26" as="geometry" />
        </mxCell>
        <mxCell id="F9q9TS915zBCrHHgD7F_-124" value="role_has_permissions" style="swimlane;fontStyle=1;align=center;verticalAlign=top;childLayout=stackLayout;horizontal=1;startSize=26;horizontalStack=0;resizeParent=1;resizeParentMax=0;resizeLast=0;collapsible=1;marginBottom=0;whiteSpace=wrap;html=1;" parent="1" vertex="1">
          <mxGeometry x="650" y="827" width="181" height="138" as="geometry" />
        </mxCell>
        <mxCell id="F9q9TS915zBCrHHgD7F_-126" value="+ role_id: bigint(20)" style="text;strokeColor=none;fillColor=none;align=left;verticalAlign=top;spacingLeft=4;spacingRight=4;overflow=hidden;rotatable=0;points=[[0,0.5],[1,0.5]];portConstraint=eastwest;whiteSpace=wrap;html=1;" parent="F9q9TS915zBCrHHgD7F_-124" vertex="1">
          <mxGeometry y="26" width="181" height="26" as="geometry" />
        </mxCell>
        <mxCell id="F9q9TS915zBCrHHgD7F_-129" value="+ model_type: varchar(50)" style="text;strokeColor=none;fillColor=none;align=left;verticalAlign=top;spacingLeft=4;spacingRight=4;overflow=hidden;rotatable=0;points=[[0,0.5],[1,0.5]];portConstraint=eastwest;whiteSpace=wrap;html=1;" parent="F9q9TS915zBCrHHgD7F_-124" vertex="1">
          <mxGeometry y="52" width="181" height="26" as="geometry" />
        </mxCell>
        <mxCell id="F9q9TS915zBCrHHgD7F_-130" value="+ model_id: bigint(20)" style="text;strokeColor=none;fillColor=none;align=left;verticalAlign=top;spacingLeft=4;spacingRight=4;overflow=hidden;rotatable=0;points=[[0,0.5],[1,0.5]];portConstraint=eastwest;whiteSpace=wrap;html=1;" parent="F9q9TS915zBCrHHgD7F_-124" vertex="1">
          <mxGeometry y="78" width="181" height="26" as="geometry" />
        </mxCell>
        <mxCell id="F9q9TS915zBCrHHgD7F_-127" value="" style="line;strokeWidth=1;fillColor=none;align=left;verticalAlign=middle;spacingTop=-1;spacingLeft=3;spacingRight=3;rotatable=0;labelPosition=right;points=[];portConstraint=eastwest;strokeColor=inherit;" parent="F9q9TS915zBCrHHgD7F_-124" vertex="1">
          <mxGeometry y="104" width="181" height="8" as="geometry" />
        </mxCell>
        <mxCell id="F9q9TS915zBCrHHgD7F_-128" value="+ assignRole()" style="text;strokeColor=none;fillColor=none;align=left;verticalAlign=top;spacingLeft=4;spacingRight=4;overflow=hidden;rotatable=0;points=[[0,0.5],[1,0.5]];portConstraint=eastwest;whiteSpace=wrap;html=1;" parent="F9q9TS915zBCrHHgD7F_-124" vertex="1">
          <mxGeometry y="112" width="181" height="26" as="geometry" />
        </mxCell>
        <mxCell id="F9q9TS915zBCrHHgD7F_-131" value="password_resets" style="swimlane;fontStyle=1;align=center;verticalAlign=top;childLayout=stackLayout;horizontal=1;startSize=26;horizontalStack=0;resizeParent=1;resizeParentMax=0;resizeLast=0;collapsible=1;marginBottom=0;whiteSpace=wrap;html=1;" parent="1" vertex="1">
          <mxGeometry x="870" y="827" width="181" height="138" as="geometry" />
        </mxCell>
        <mxCell id="F9q9TS915zBCrHHgD7F_-132" value="+ email: varchar(50)" style="text;strokeColor=none;fillColor=none;align=left;verticalAlign=top;spacingLeft=4;spacingRight=4;overflow=hidden;rotatable=0;points=[[0,0.5],[1,0.5]];portConstraint=eastwest;whiteSpace=wrap;html=1;" parent="F9q9TS915zBCrHHgD7F_-131" vertex="1">
          <mxGeometry y="26" width="181" height="26" as="geometry" />
        </mxCell>
        <mxCell id="F9q9TS915zBCrHHgD7F_-133" value="+ token: varchar(50)" style="text;strokeColor=none;fillColor=none;align=left;verticalAlign=top;spacingLeft=4;spacingRight=4;overflow=hidden;rotatable=0;points=[[0,0.5],[1,0.5]];portConstraint=eastwest;whiteSpace=wrap;html=1;" parent="F9q9TS915zBCrHHgD7F_-131" vertex="1">
          <mxGeometry y="52" width="181" height="26" as="geometry" />
        </mxCell>
        <mxCell id="F9q9TS915zBCrHHgD7F_-134" value="+ created_at: timestamp" style="text;strokeColor=none;fillColor=none;align=left;verticalAlign=top;spacingLeft=4;spacingRight=4;overflow=hidden;rotatable=0;points=[[0,0.5],[1,0.5]];portConstraint=eastwest;whiteSpace=wrap;html=1;" parent="F9q9TS915zBCrHHgD7F_-131" vertex="1">
          <mxGeometry y="78" width="181" height="26" as="geometry" />
        </mxCell>
        <mxCell id="F9q9TS915zBCrHHgD7F_-135" value="" style="line;strokeWidth=1;fillColor=none;align=left;verticalAlign=middle;spacingTop=-1;spacingLeft=3;spacingRight=3;rotatable=0;labelPosition=right;points=[];portConstraint=eastwest;strokeColor=inherit;" parent="F9q9TS915zBCrHHgD7F_-131" vertex="1">
          <mxGeometry y="104" width="181" height="8" as="geometry" />
        </mxCell>
        <mxCell id="F9q9TS915zBCrHHgD7F_-136" value="+ Create()" style="text;strokeColor=none;fillColor=none;align=left;verticalAlign=top;spacingLeft=4;spacingRight=4;overflow=hidden;rotatable=0;points=[[0,0.5],[1,0.5]];portConstraint=eastwest;whiteSpace=wrap;html=1;" parent="F9q9TS915zBCrHHgD7F_-131" vertex="1">
          <mxGeometry y="112" width="181" height="26" as="geometry" />
        </mxCell>
        <mxCell id="Yokth5BApUKoCAQ3xlI2-1" style="edgeStyle=orthogonalEdgeStyle;rounded=0;orthogonalLoop=1;jettySize=auto;html=1;" parent="1" source="F9q9TS915zBCrHHgD7F_-29" target="F9q9TS915zBCrHHgD7F_-3" edge="1">
          <mxGeometry relative="1" as="geometry" />
        </mxCell>
        <mxCell id="Yokth5BApUKoCAQ3xlI2-2" style="edgeStyle=orthogonalEdgeStyle;rounded=0;orthogonalLoop=1;jettySize=auto;html=1;" parent="1" source="F9q9TS915zBCrHHgD7F_-38" target="F9q9TS915zBCrHHgD7F_-4" edge="1">
          <mxGeometry relative="1" as="geometry" />
        </mxCell>
        <mxCell id="Yokth5BApUKoCAQ3xlI2-3" style="edgeStyle=orthogonalEdgeStyle;rounded=0;orthogonalLoop=1;jettySize=auto;html=1;entryX=1;entryY=0.5;entryDx=0;entryDy=0;" parent="1" source="F9q9TS915zBCrHHgD7F_-2" target="VsDIbR9240KIRRW7qfdD-24" edge="1">
          <mxGeometry relative="1" as="geometry" />
        </mxCell>
        <mxCell id="Yokth5BApUKoCAQ3xlI2-4" style="edgeStyle=orthogonalEdgeStyle;rounded=0;orthogonalLoop=1;jettySize=auto;html=1;" parent="1" source="VsDIbR9240KIRRW7qfdD-10" target="VsDIbR9240KIRRW7qfdD-23" edge="1">
          <mxGeometry relative="1" as="geometry" />
        </mxCell>
        <mxCell id="Yokth5BApUKoCAQ3xlI2-5" style="edgeStyle=orthogonalEdgeStyle;rounded=0;orthogonalLoop=1;jettySize=auto;html=1;entryX=1;entryY=0.5;entryDx=0;entryDy=0;" parent="1" source="VsDIbR9240KIRRW7qfdD-10" target="KtA02jtV5_ZHFJ8k51ah-8" edge="1">
          <mxGeometry relative="1" as="geometry" />
        </mxCell>
        <mxCell id="Yokth5BApUKoCAQ3xlI2-6" style="edgeStyle=orthogonalEdgeStyle;rounded=0;orthogonalLoop=1;jettySize=auto;html=1;" parent="1" source="F9q9TS915zBCrHHgD7F_-20" target="VsDIbR9240KIRRW7qfdD-6" edge="1">
          <mxGeometry relative="1" as="geometry" />
        </mxCell>
        <mxCell id="Yokth5BApUKoCAQ3xlI2-7" style="edgeStyle=orthogonalEdgeStyle;rounded=0;orthogonalLoop=1;jettySize=auto;html=1;" parent="1" source="F9q9TS915zBCrHHgD7F_-89" target="VsDIbR9240KIRRW7qfdD-5" edge="1">
          <mxGeometry relative="1" as="geometry" />
        </mxCell>
        <mxCell id="Yokth5BApUKoCAQ3xlI2-8" style="edgeStyle=orthogonalEdgeStyle;rounded=0;orthogonalLoop=1;jettySize=auto;html=1;entryX=0;entryY=0.5;entryDx=0;entryDy=0;" parent="1" source="F9q9TS915zBCrHHgD7F_-89" target="F9q9TS915zBCrHHgD7F_-21" edge="1">
          <mxGeometry relative="1" as="geometry" />
        </mxCell>
        <mxCell id="Yokth5BApUKoCAQ3xlI2-9" style="edgeStyle=orthogonalEdgeStyle;rounded=0;orthogonalLoop=1;jettySize=auto;html=1;entryX=0;entryY=0.5;entryDx=0;entryDy=0;" parent="1" source="VsDIbR9240KIRRW7qfdD-10" target="F9q9TS915zBCrHHgD7F_-64" edge="1">
          <mxGeometry relative="1" as="geometry" />
        </mxCell>
        <mxCell id="Yokth5BApUKoCAQ3xlI2-10" style="edgeStyle=orthogonalEdgeStyle;rounded=0;orthogonalLoop=1;jettySize=auto;html=1;" parent="1" source="F9q9TS915zBCrHHgD7F_-63" target="F9q9TS915zBCrHHgD7F_-79" edge="1">
          <mxGeometry relative="1" as="geometry" />
        </mxCell>
        <mxCell id="NUsiREeauvgmFBDhkkEq-1" style="edgeStyle=orthogonalEdgeStyle;rounded=0;orthogonalLoop=1;jettySize=auto;html=1;" parent="1" source="F9q9TS915zBCrHHgD7F_-99" target="F9q9TS915zBCrHHgD7F_-111" edge="1">
          <mxGeometry relative="1" as="geometry" />
        </mxCell>
        <mxCell id="JjWtq-WbktGqVJIk80bh-1" style="edgeStyle=orthogonalEdgeStyle;rounded=0;orthogonalLoop=1;jettySize=auto;html=1;" parent="1" source="F9q9TS915zBCrHHgD7F_-115" target="F9q9TS915zBCrHHgD7F_-123" edge="1">
          <mxGeometry relative="1" as="geometry" />
        </mxCell>
        <mxCell id="JjWtq-WbktGqVJIk80bh-2" style="edgeStyle=orthogonalEdgeStyle;rounded=0;orthogonalLoop=1;jettySize=auto;html=1;" parent="1" source="F9q9TS915zBCrHHgD7F_-115" target="F9q9TS915zBCrHHgD7F_-126" edge="1">
          <mxGeometry relative="1" as="geometry" />
        </mxCell>
      </root>
    </mxGraphModel>
  </diagram>
</mxfile>
